<svg width="37" height="37" viewBox="0 0 37 37" fill="none" xmlns="http://www.w3.org/2000/svg">
<circle cx="18.5" cy="18.5" r="18.5" fill="#458200"/>
<path d="M14 12.1326H13C12.4696 12.1326 11.9609 12.3503 11.5858 12.7378C11.2107 13.1253 11 13.6509 11 14.199V23.4977C11 24.0458 11.2107 24.5714 11.5858 24.9589C11.9609 25.3464 12.4696 25.5641 13 25.5641H22C22.5304 25.5641 23.0391 25.3464 23.4142 24.9589C23.7893 24.5714 24 24.0458 24 23.4977V22.4645" stroke="white" stroke-width="2" stroke-linecap="round" stroke-linejoin="round"/>
<path d="M23 10.0665L26 13.1661M27.385 11.7041C27.7788 11.2972 28.0001 10.7453 28.0001 10.1698C28.0001 9.59435 27.7788 9.04245 27.385 8.63553C26.9912 8.22861 26.457 8 25.9 8C25.343 8 24.8088 8.22861 24.415 8.63553L16 17.2989V20.3985H19L27.385 11.7041Z" stroke="white" stroke-width="2" stroke-linecap="round" stroke-linejoin="round"/>
</svg>
