<svg width="38" height="38" viewBox="0 0 38 38" fill="none" xmlns="http://www.w3.org/2000/svg">
<path d="M34.625 0.25H3.375C2.5462 0.25 1.75134 0.57924 1.16529 1.16529C0.57924 1.75134 0.25 2.5462 0.25 3.375V34.625C0.25 35.4538 0.57924 36.2487 1.16529 36.8347C1.75134 37.4208 2.5462 37.75 3.375 37.75H34.625C35.4538 37.75 36.2487 37.4208 36.8347 36.8347C37.4208 36.2487 37.75 35.4538 37.75 34.625V3.375C37.75 2.5462 37.4208 1.75134 36.8347 1.16529C36.2487 0.57924 35.4538 0.25 34.625 0.25ZM29.4805 27.2695C29.6256 27.4147 29.7408 27.587 29.8194 27.7767C29.8979 27.9664 29.9384 28.1697 29.9384 28.375C29.9384 28.5803 29.8979 28.7836 29.8194 28.9733C29.7408 29.163 29.6256 29.3353 29.4805 29.4805C29.3353 29.6256 29.163 29.7408 28.9733 29.8194C28.7836 29.8979 28.5803 29.9384 28.375 29.9384C28.1697 29.9384 27.9664 29.8979 27.7767 29.8194C27.587 29.7408 27.4147 29.6256 27.2695 29.4805L19 21.209L10.7305 29.4805C10.4373 29.7737 10.0396 29.9384 9.625 29.9384C9.21037 29.9384 8.81272 29.7737 8.51953 29.4805C8.22634 29.1873 8.06163 28.7896 8.06163 28.375C8.06163 27.9604 8.22634 27.5627 8.51953 27.2695L16.791 19L8.51953 10.7305C8.22634 10.4373 8.06163 10.0396 8.06163 9.625C8.06163 9.21037 8.22634 8.81272 8.51953 8.51953C8.81272 8.22634 9.21037 8.06163 9.625 8.06163C10.0396 8.06163 10.4373 8.22634 10.7305 8.51953L19 16.791L27.2695 8.51953C27.5627 8.22634 27.9604 8.06163 28.375 8.06163C28.7896 8.06163 29.1873 8.22634 29.4805 8.51953C29.7737 8.81272 29.9384 9.21037 29.9384 9.625C29.9384 10.0396 29.7737 10.4373 29.4805 10.7305L21.209 19L29.4805 27.2695Z" fill="#F24E1E"/>
</svg>
