<svg width="71" height="72" viewBox="0 0 71 72" fill="none" xmlns="http://www.w3.org/2000/svg">
<path d="M53.849 0H16.4844C7.38031 0 0 7.47851 0 16.7037V54.5655C0 63.7907 7.38031 71.2692 16.4844 71.2692H53.849C62.953 71.2692 70.3333 63.7907 70.3333 54.5655V16.7037C70.3333 7.47851 62.953 0 53.849 0Z" fill="url(#paint0_radial_1151_2194)"/>
<path d="M53.849 0H16.4844C7.38031 0 0 7.47851 0 16.7037V54.5655C0 63.7907 7.38031 71.2692 16.4844 71.2692H53.849C62.953 71.2692 70.3333 63.7907 70.3333 54.5655V16.7037C70.3333 7.47851 62.953 0 53.849 0Z" fill="url(#paint1_radial_1151_2194)"/>
<path d="M35.1691 7.7951C27.7077 7.7951 26.7711 7.82823 23.8407 7.96326C20.9158 8.09911 18.9193 8.56821 17.1725 9.25668C15.3653 9.9677 13.8325 10.919 12.3055 12.4669C10.7771 14.0145 9.83834 15.5676 9.13446 17.3981C8.45311 19.1687 7.98962 21.1926 7.85802 24.155C7.72697 27.1247 7.69263 28.074 7.69263 35.6349C7.69263 43.1959 7.7256 44.1419 7.85857 47.1112C7.99319 50.075 8.45613 52.0981 9.13501 53.8682C9.83724 55.6994 10.776 57.2526 12.3036 58.7999C13.8303 60.3487 15.3631 61.3022 17.1689 62.0132C18.9171 62.7016 20.9139 63.1707 23.8382 63.3066C26.7689 63.4416 27.7047 63.4748 35.1658 63.4748C42.628 63.4748 43.5615 63.4416 46.4919 63.3066C49.4168 63.1707 51.4155 62.7016 53.1637 62.0132C54.9701 61.3022 56.5007 60.3487 58.0271 58.7999C59.5555 57.2526 60.494 55.6994 61.1982 53.869C61.8735 52.0981 62.3372 50.0745 62.4746 47.1118C62.6062 44.1424 62.6405 43.1959 62.6405 35.6349C62.6405 28.074 62.6062 27.1252 62.4746 24.1556C62.3372 21.1918 61.8735 19.169 61.1982 17.3989C60.494 15.5676 59.5555 14.0145 58.0271 12.4669C56.499 10.9184 54.9706 9.96715 53.162 9.25696C51.4106 8.56821 49.4129 8.09883 46.4881 7.96326C43.5574 7.82823 42.6244 7.7951 35.1605 7.7951H35.1691ZM32.7044 12.8121C33.436 12.811 34.2523 12.8121 35.1691 12.8121C42.5049 12.8121 43.3742 12.8388 46.271 12.9721C48.9497 13.0963 50.4036 13.5498 51.3721 13.9309C52.6543 14.4354 53.5684 15.0387 54.5294 16.0133C55.491 16.9877 56.0861 17.9156 56.5853 19.2149C56.9614 20.1948 57.4095 21.6681 57.5315 24.3825C57.6631 27.3173 57.6917 28.1987 57.6917 35.6285C57.6917 43.0583 57.6631 43.94 57.5315 46.8746C57.409 49.5889 56.9614 51.0622 56.5853 52.0424C56.0875 53.3417 55.491 54.2668 54.5294 55.2407C53.5678 56.215 52.6549 56.818 51.3721 57.3228C50.4047 57.7056 48.9497 58.158 46.271 58.2821C43.3747 58.4155 42.5049 58.4444 35.1691 58.4444C27.833 58.4444 26.9634 58.4155 24.0674 58.2821C21.3887 58.1568 19.9347 57.7033 18.9655 57.3222C17.6835 56.8175 16.7675 56.2145 15.806 55.2401C14.8444 54.2657 14.2493 53.34 13.7501 52.0402C13.374 51.06 12.9259 49.5867 12.8039 46.8724C12.6723 43.9375 12.6459 43.0561 12.6459 35.6216C12.6459 28.1873 12.6723 27.3103 12.8039 24.3755C12.9264 21.6611 13.374 20.1879 13.7501 19.2065C14.2482 17.9073 14.8444 16.9794 15.8062 16.005C16.7678 15.0306 17.6835 14.4273 18.9657 13.9218C19.9342 13.539 21.3887 13.0866 24.0674 12.9618C26.6019 12.8458 27.584 12.811 32.7044 12.8051V12.8121ZM49.8347 17.4345C48.0145 17.4345 46.5378 18.9295 46.5378 20.7742C46.5378 22.6185 48.0145 24.1149 49.8347 24.1149C51.6548 24.1149 53.1315 22.6185 53.1315 20.7742C53.1315 18.9298 51.6548 17.4334 49.8347 17.4334V17.4345ZM35.1691 21.3379C27.3774 21.3379 21.0601 27.7394 21.0601 35.6349C21.0601 43.5305 27.3774 49.9289 35.1691 49.9289C42.9609 49.9289 49.2761 43.5305 49.2761 35.6349C49.2761 27.7396 42.9604 21.3379 35.1685 21.3379H35.1691ZM35.1691 26.3549C40.2267 26.3549 44.3272 30.5094 44.3272 35.6349C44.3272 40.7599 40.2267 44.915 35.1691 44.915C30.1111 44.915 26.0112 40.7599 26.0112 35.6349C26.0112 30.5094 30.1111 26.3549 35.1691 26.3549Z" fill="white"/>
<defs>
<radialGradient id="paint0_radial_1151_2194" cx="0" cy="0" r="1" gradientUnits="userSpaceOnUse" gradientTransform="translate(18.6823 76.7584) rotate(-90) scale(70.6331 64.8317)">
<stop stop-color="#FFDD55"/>
<stop offset="0.1" stop-color="#FFDD55"/>
<stop offset="0.5" stop-color="#FF543E"/>
<stop offset="1" stop-color="#C837AB"/>
</radialGradient>
<radialGradient id="paint1_radial_1151_2194" cx="0" cy="0" r="1" gradientUnits="userSpaceOnUse" gradientTransform="translate(-11.7811 5.13389) rotate(78.8259) scale(31.5575 128.502)">
<stop stop-color="#3771C8"/>
<stop offset="0.128" stop-color="#3771C8"/>
<stop offset="1" stop-color="#6600FF" stop-opacity="0"/>
</radialGradient>
</defs>
</svg>
