<svg width="80" height="80" viewBox="0 0 80 80" fill="none" xmlns="http://www.w3.org/2000/svg">
<circle cx="40" cy="40" r="40" fill="black"/>
<path d="M53.3359 40C53.3359 34.4531 49.9453 29.7031 45.1328 27.6953L43.8516 30.7734C47.4609 32.2812 50 35.8438 50 40C50 44.1641 47.4609 47.7188 43.8438 49.2266L45.125 52.3047C49.9453 50.2969 53.3359 45.5469 53.3359 40ZM46.6641 40C46.6641 37.2266 44.9687 34.8516 42.5625 33.8516L41.2812 36.9297C42.4844 37.4297 43.3281 38.6172 43.3281 40.0078C43.3281 41.3906 42.4844 42.5781 41.2812 43.0859L42.5625 46.1641C44.9687 45.1484 46.6641 42.7734 46.6641 40ZM47.6953 21.5391L46.4062 24.6172C52.4297 27.125 56.6641 33.0625 56.6641 40C56.6641 46.9297 52.4297 52.875 46.4062 55.3828L47.6875 58.4609C54.9219 55.4453 60 48.3203 60 40C60 31.6797 54.9219 24.5547 47.6953 21.5391ZM20 31.6641V48.3281H26.6641L38.3359 60V20L26.6641 31.6641H20Z" fill="white"/>
</svg>
