<svg width="200" height="200" viewBox="0 0 200 200" fill="none" xmlns="http://www.w3.org/2000/svg">
<circle cx="100" cy="100" r="100" fill="#009900"/>
<path d="M133.34 100C133.34 86.1328 124.863 74.2578 112.832 69.2383L109.629 76.9336C118.652 80.7031 125 89.6094 125 100C125 110.41 118.652 119.297 109.609 123.066L112.812 130.762C124.863 125.742 133.34 113.867 133.34 100ZM116.66 100C116.66 93.0664 112.422 87.1289 106.406 84.6289L103.203 92.3242C106.211 93.5742 108.32 96.543 108.32 100.02C108.32 103.477 106.211 106.445 103.203 107.715L106.406 115.41C112.422 112.871 116.66 106.934 116.66 100ZM119.238 53.8477L116.016 61.543C131.074 67.8125 141.66 82.6562 141.66 100C141.66 117.324 131.074 132.188 116.016 138.457L119.219 146.152C137.305 138.613 150 120.801 150 100C150 79.1992 137.305 61.3867 119.238 53.8477ZM50 79.1602V120.82H66.6602L95.8398 150V50L66.6602 79.1602H50Z" fill="white"/>
</svg>
