<svg width="100" height="100" viewBox="0 0 100 100" fill="none" xmlns="http://www.w3.org/2000/svg">
<path d="M83.3398 50C83.3398 36.1328 74.8633 24.2578 62.832 19.2383L59.6289 26.9336C68.6523 30.7031 75 39.6094 75 50C75 60.4102 68.6523 69.2969 59.6094 73.0664L62.8125 80.7617C74.8633 75.7422 83.3398 63.8672 83.3398 50ZM66.6602 50C66.6602 43.0664 62.4219 37.1289 56.4062 34.6289L53.2031 42.3242C56.2109 43.5742 58.3203 46.543 58.3203 50.0195C58.3203 53.4766 56.2109 56.4453 53.2031 57.7148L56.4062 65.4102C62.4219 62.8711 66.6602 56.9336 66.6602 50ZM69.2383 3.84766L66.0156 11.543C81.0742 17.8125 91.6602 32.6562 91.6602 50C91.6602 67.3242 81.0742 82.1875 66.0156 88.457L69.2188 96.1523C87.3047 88.6133 100 70.8008 100 50C100 29.1992 87.3047 11.3867 69.2383 3.84766ZM0 29.1602V70.8203H16.6602L45.8398 100V0L16.6602 29.1602H0Z" fill="white"/>
</svg>
