<svg width="108" height="109" viewBox="0 0 108 109" fill="none" xmlns="http://www.w3.org/2000/svg">
<path fill-rule="evenodd" clip-rule="evenodd" d="M53.7846 18.1662C57.6167 18.1662 61.5475 18.2661 65.3572 18.4296L69.8572 18.6476L74.1644 18.9065L78.1982 19.1835L81.8824 19.4742C85.8806 19.7843 89.6428 21.5131 92.5072 24.3566C95.3716 27.2001 97.1546 30.9761 97.5426 35.0203L97.7219 36.9505L98.0581 41.0834C98.3718 45.3662 98.6049 50.035 98.6049 54.4995C98.6049 58.964 98.3718 63.6328 98.0581 67.9156L97.7219 72.0485C97.6637 72.7116 97.6054 73.352 97.5426 73.9787C97.1545 78.0236 95.3708 81.8001 92.5055 84.6437C89.6402 87.4873 85.8769 89.2158 81.878 89.5248L78.2027 89.811L74.1689 90.0925L69.8572 90.3514L65.3572 90.5694C61.5019 90.7392 57.6435 90.827 53.7846 90.8328C49.9257 90.827 46.0673 90.7392 42.212 90.5694L37.7121 90.3514L33.4048 90.0925L29.371 89.811L25.6868 89.5248C21.6886 89.2147 17.9264 87.4859 15.062 84.6424C12.1977 81.7989 10.4146 78.0229 10.0266 73.9787L9.84731 72.0485L9.51116 67.9156C9.16846 63.4517 8.98607 58.9768 8.96436 54.4995C8.96436 50.035 9.19742 45.3662 9.51116 41.0834L9.84731 36.9505C9.90558 36.2874 9.96385 35.647 10.0266 35.0203C10.4145 30.9768 12.1969 27.2014 15.0603 24.358C17.9238 21.5146 21.6849 19.7853 25.6823 19.4742L29.3621 19.1835L33.3959 18.9065L37.7076 18.6476L42.2075 18.4296C46.0643 18.2599 49.9242 18.1721 53.7846 18.1662ZM44.8206 43.486V65.513C44.8206 67.6113 47.0616 68.9193 48.8544 67.8747L67.6789 56.8612C68.0885 56.6222 68.4288 56.2781 68.6653 55.8635C68.9019 55.4489 69.0265 54.9784 69.0265 54.4995C69.0265 54.0206 68.9019 53.5501 68.6653 53.1355C68.4288 52.7209 68.0885 52.3768 67.6789 52.1378L48.8544 41.1288C48.4454 40.8896 47.9816 40.7637 47.5093 40.7638C47.0371 40.7638 46.5733 40.8899 46.1644 41.1293C45.7556 41.3686 45.4161 41.7129 45.1802 42.1274C44.9443 42.5419 44.8203 43.012 44.8206 43.4905V43.486Z" fill="#FF3838"/>
</svg>
