<svg width="35" height="40" viewBox="0 0 35 40" fill="none" xmlns="http://www.w3.org/2000/svg">
<path d="M11.2309 27.16C10.3776 26.7333 9.52427 26.1467 8.67094 25.4C7.8176 24.6 7.04427 23.6667 6.35094 22.6C5.6576 21.5333 5.0976 20.3867 4.67094 19.16C4.2976 17.88 4.11094 16.5733 4.11094 15.24C4.11094 12.3067 4.80427 9.72 6.19094 7.48C7.5776 5.18667 9.44427 3.4 11.7909 2.12C14.1376 0.786665 16.7243 0.119998 19.5509 0.119998C21.0976 0.119998 22.5109 0.226665 23.7909 0.439999C25.1243 0.599999 26.4576 0.866665 27.7909 1.24L26.0309 11.64C25.0709 11.3733 24.1376 11.1867 23.2309 11.08C22.3776 10.92 21.6043 10.84 20.9109 10.84C19.7909 10.84 18.8043 11.08 17.9509 11.56C17.0976 11.9867 16.4309 12.6267 15.9509 13.48C15.5243 14.28 15.3109 15.2133 15.3109 16.28C15.3109 17.5067 15.5776 18.6 16.1109 19.56C16.6976 20.52 17.5509 21.3467 18.6709 22.04C19.8443 22.68 21.2843 23.1867 22.9909 23.56L11.2309 27.16ZM4.03094 39.56L0.430938 29.08C3.20427 28.3333 6.2176 27.48 9.47094 26.52C12.7243 25.5067 16.1376 24.36 19.7109 23.08C23.3376 21.8 27.0176 20.4133 30.7509 18.92L34.9109 29.16C32.7776 30.0133 30.4043 30.9467 27.7909 31.96C25.1776 32.92 22.4576 33.88 19.6309 34.84C16.8043 35.8 14.0576 36.68 11.3909 37.48C8.72427 38.28 6.27094 38.9733 4.03094 39.56Z" fill="white"/>
</svg>
