<svg width="76" height="57" viewBox="0 0 76 57" fill="none" xmlns="http://www.w3.org/2000/svg">
<path d="M31.5234 37.68L33.6034 26.48C38.7768 26.48 43.2834 26.3467 47.1234 26.08C50.9634 25.76 54.1368 25.3067 56.6434 24.72C59.2034 24.08 61.0968 23.2533 62.3234 22.24C63.6034 21.2267 64.2434 20 64.2434 18.56C64.2434 16.64 63.9234 14.3467 63.2834 11.68C62.6434 8.96 61.8168 6.21333 60.8034 3.44L71.2834 0.399998C71.9768 2.21333 72.6434 4.21333 73.2834 6.4C73.9234 8.53333 74.4301 10.6933 74.8034 12.88C75.2301 15.0133 75.4434 17.0133 75.4434 18.88C75.4434 22.1867 74.7234 25.04 73.2834 27.44C71.8434 29.7867 69.4434 31.7333 66.0834 33.28C62.7768 34.7733 58.2968 35.8667 52.6434 36.56C46.9901 37.3067 39.9501 37.68 31.5234 37.68ZM31.4434 37.68C25.6834 37.68 20.8034 37.2267 16.8034 36.32C12.8568 35.4667 9.6301 34.24 7.12344 32.64C4.6701 30.9867 2.88344 29.0667 1.76344 26.88C0.643438 24.6933 0.0834376 22.2933 0.0834376 19.68C0.0834376 17.9733 0.216771 16.2667 0.483438 14.56C0.803438 12.8 1.17677 11.0933 1.60344 9.44C2.08344 7.78667 2.5101 6.29333 2.88344 4.96L12.8834 7.28C12.6701 8.24 12.4301 9.28 12.1634 10.4C11.8968 11.52 11.6834 12.6133 11.5234 13.68C11.3634 14.6933 11.2834 15.6267 11.2834 16.48C11.2834 18.4533 11.9768 20.2133 13.3634 21.76C14.8034 23.2533 17.1501 24.4267 20.4034 25.28C23.6568 26.08 28.0301 26.48 33.5234 26.48L35.1234 35.12L31.4434 37.68ZM37.6034 56.4C36.0568 56.4 34.7234 55.8667 33.6034 54.8C32.5368 53.7333 32.0034 52.4267 32.0034 50.88C32.0034 49.3333 32.5368 47.9733 33.6034 46.8C34.7234 45.68 36.0568 45.12 37.6034 45.12C39.1501 45.12 40.4568 45.68 41.5234 46.8C42.6434 47.9733 43.2034 49.3333 43.2034 50.88C43.2034 52.4267 42.6434 53.7333 41.5234 54.8C40.4568 55.8667 39.1501 56.4 37.6034 56.4Z" fill="white"/>
</svg>
