<svg width="76" height="49" viewBox="0 0 76 49" fill="none" xmlns="http://www.w3.org/2000/svg">
<path d="M32.0234 48.68L34.1034 37.48C39.2768 37.48 43.7834 37.3467 47.6234 37.08C51.4634 36.76 54.6368 36.3067 57.1434 35.72C59.7034 35.08 61.5968 34.2533 62.8234 33.24C64.1034 32.2267 64.7434 31 64.7434 29.56C64.7434 27.64 64.4234 25.3467 63.7834 22.68C63.1434 19.96 62.3168 17.2133 61.3034 14.44L71.7834 11.4C72.4768 13.2133 73.1434 15.2133 73.7834 17.4C74.4234 19.5333 74.9301 21.6933 75.3034 23.88C75.7301 26.0133 75.9434 28.0133 75.9434 29.88C75.9434 33.1867 75.2234 36.04 73.7834 38.44C72.3434 40.7867 69.9434 42.7333 66.5834 44.28C63.2768 45.7733 58.7968 46.8667 53.1434 47.56C47.4901 48.3067 40.4501 48.68 32.0234 48.68ZM31.9434 48.68C26.1834 48.68 21.3034 48.2267 17.3034 47.32C13.3568 46.4667 10.1301 45.24 7.62344 43.64C5.1701 41.9867 3.38344 40.0667 2.26344 37.88C1.14344 35.6933 0.583438 33.2933 0.583438 30.68C0.583438 28.9733 0.716771 27.2667 0.983438 25.56C1.30344 23.8 1.67677 22.0933 2.10344 20.44C2.58344 18.7867 3.0101 17.2933 3.38344 15.96L13.3834 18.28C13.1701 19.24 12.9301 20.28 12.6634 21.4C12.3968 22.52 12.1834 23.6133 12.0234 24.68C11.8634 25.6933 11.7834 26.6267 11.7834 27.48C11.7834 29.4533 12.4768 31.2133 13.8634 32.76C15.3034 34.2533 17.6501 35.4267 20.9034 36.28C24.1568 37.08 28.5301 37.48 34.0234 37.48L35.6234 46.12L31.9434 48.68ZM45.1434 12.12C43.5968 12.12 42.2634 11.5867 41.1434 10.52C40.0768 9.4 39.5434 8.09333 39.5434 6.6C39.5434 5.05333 40.0768 3.72 41.1434 2.6C42.2634 1.48 43.5968 0.919997 45.1434 0.919997C46.6368 0.919997 47.9168 1.48 48.9834 2.6C50.0501 3.72 50.5834 5.05333 50.5834 6.6C50.5834 8.09333 50.0501 9.4 48.9834 10.52C47.9168 11.5867 46.6368 12.12 45.1434 12.12ZM31.3034 12.04C29.7568 12.04 28.4234 11.5067 27.3034 10.44C26.2368 9.32 25.7034 8.01333 25.7034 6.52C25.7034 4.97333 26.2368 3.64 27.3034 2.52C28.4234 1.4 29.7568 0.839998 31.3034 0.839998C32.7968 0.839998 34.0768 1.4 35.1434 2.52C36.2101 3.64 36.7434 4.97333 36.7434 6.52C36.7434 8.01333 36.2101 9.32 35.1434 10.44C34.0768 11.5067 32.7968 12.04 31.3034 12.04Z" fill="white"/>
</svg>
