<svg width="76" height="58" viewBox="0 0 76 58" fill="none" xmlns="http://www.w3.org/2000/svg">
<path d="M32.0234 57.68L34.1034 46.48C39.2768 46.48 43.7834 46.3467 47.6234 46.08C51.4634 45.76 54.6368 45.3067 57.1434 44.72C59.7034 44.08 61.5968 43.2533 62.8234 42.24C64.1034 41.2267 64.7434 40 64.7434 38.56C64.7434 36.64 64.4234 34.3467 63.7834 31.68C63.1434 28.96 62.3168 26.2133 61.3034 23.44L71.7834 20.4C72.4768 22.2133 73.1434 24.2133 73.7834 26.4C74.4234 28.5333 74.9301 30.6933 75.3034 32.88C75.7301 35.0133 75.9434 37.0133 75.9434 38.88C75.9434 42.1867 75.2234 45.04 73.7834 47.44C72.3434 49.7867 69.9434 51.7333 66.5834 53.28C63.2768 54.7733 58.7968 55.8667 53.1434 56.56C47.4901 57.3067 40.4501 57.68 32.0234 57.68ZM31.9434 57.68C26.1834 57.68 21.3034 57.2267 17.3034 56.32C13.3568 55.4667 10.1301 54.24 7.62344 52.64C5.1701 50.9867 3.38344 49.0667 2.26344 46.88C1.14344 44.6933 0.583438 42.2933 0.583438 39.68C0.583438 37.9733 0.716771 36.2667 0.983438 34.56C1.30344 32.8 1.67677 31.0933 2.10344 29.44C2.58344 27.7867 3.0101 26.2933 3.38344 24.96L13.3834 27.28C13.1701 28.24 12.9301 29.28 12.6634 30.4C12.3968 31.52 12.1834 32.6133 12.0234 33.68C11.8634 34.6933 11.7834 35.6267 11.7834 36.48C11.7834 38.4533 12.4768 40.2133 13.8634 41.76C15.3034 43.2533 17.6501 44.4267 20.9034 45.28C24.1568 46.08 28.5301 46.48 34.0234 46.48L35.6234 55.12L31.9434 57.68ZM38.7434 10.4C37.4101 10.4 36.2368 9.89333 35.2234 8.88C34.2634 7.86666 33.7834 6.66666 33.7834 5.28C33.7834 3.89333 34.2634 2.72 35.2234 1.76C36.2368 0.799997 37.4101 0.319997 38.7434 0.319997C40.1301 0.319997 41.3034 0.799997 42.2634 1.76C43.2234 2.72 43.7034 3.89333 43.7034 5.28C43.7034 6.66666 43.2234 7.86666 42.2634 8.88C41.3034 9.89333 40.1301 10.4 38.7434 10.4ZM32.3434 20.96C31.0101 20.96 29.8368 20.4533 28.8234 19.44C27.8634 18.4267 27.3834 17.2267 27.3834 15.84C27.3834 14.4533 27.8634 13.28 28.8234 12.32C29.8368 11.36 31.0101 10.88 32.3434 10.88C33.7301 10.88 34.9034 11.36 35.8634 12.32C36.8234 13.28 37.3034 14.4533 37.3034 15.84C37.3034 17.2267 36.8234 18.4267 35.8634 19.44C34.9034 20.4533 33.7301 20.96 32.3434 20.96ZM44.7434 20.96C43.4101 20.96 42.2368 20.4533 41.2234 19.44C40.2634 18.4267 39.7834 17.2267 39.7834 15.84C39.7834 14.4533 40.2634 13.28 41.2234 12.32C42.2368 11.36 43.4101 10.88 44.7434 10.88C46.1301 10.88 47.3034 11.36 48.2634 12.32C49.2234 13.28 49.7034 14.4533 49.7034 15.84C49.7034 17.2267 49.2234 18.4267 48.2634 19.44C47.3034 20.4533 46.1301 20.96 44.7434 20.96Z" fill="white"/>
</svg>
