<svg width="53" height="72" viewBox="0 0 53 72" fill="none" xmlns="http://www.w3.org/2000/svg">
<path d="M31.4591 49.76C29.8057 49.76 28.3924 49.2 27.2191 48.08C26.0991 46.96 25.5391 45.5733 25.5391 43.92C25.5391 42.2667 26.0991 40.8533 27.2191 39.68C28.3924 38.5067 29.8057 37.92 31.4591 37.92C33.0591 37.92 34.4191 38.5067 35.5391 39.68C36.7124 40.8533 37.2991 42.2667 37.2991 43.92C37.2991 45.5733 36.7124 46.96 35.5391 48.08C34.4191 49.2 33.0591 49.76 31.4591 49.76ZM29.6991 71.52C25.6457 71.52 21.8591 71.0133 18.3391 70C14.8191 68.9867 11.7524 67.4667 9.13906 65.44C6.52573 63.4133 4.4724 60.9067 2.97906 57.92C1.53906 54.9333 0.819063 51.4933 0.819063 47.6C0.819063 43.9733 1.37906 40.6133 2.49906 37.52C3.6724 34.4267 5.2724 31.6267 7.29906 29.12C9.37906 26.6133 11.8324 24.3733 14.6591 22.4C17.4857 20.4267 20.5791 18.7467 23.9391 17.36C27.3524 15.9733 30.9257 14.88 34.6591 14.08L34.8191 15.52C33.5391 15.1467 32.1257 14.72 30.5791 14.24C29.0324 13.76 27.3524 13.3067 25.5391 12.88C23.7791 12.4533 21.8857 12.1067 19.8591 11.84C17.8857 11.52 15.8057 11.36 13.6191 11.36C11.6991 11.36 9.88573 11.4933 8.17906 11.76C6.52573 11.9733 5.05906 12.24 3.77906 12.56L2.09906 1.68C3.64573 1.2 5.29906 0.799998 7.05906 0.479999C8.8724 0.16 10.7391 0 12.6591 0C15.5391 0 18.2057 0.266666 20.6591 0.799999C23.1124 1.28 25.4057 1.89333 27.5391 2.64C29.7257 3.38667 31.8057 4.16 33.7791 4.96C35.8057 5.70666 37.7791 6.34666 39.6991 6.88C41.6191 7.36 43.5924 7.6 45.6191 7.6H48.8191L49.8591 19.6C47.8324 19.6 45.4857 19.8667 42.8191 20.4C40.2057 20.9333 37.4857 21.7067 34.6591 22.72C31.8324 23.7333 29.0591 24.9867 26.3391 26.48C23.6724 27.9733 21.2457 29.7067 19.0591 31.68C16.9257 33.6533 15.2191 35.84 13.9391 38.24C12.6591 40.64 12.0191 43.2533 12.0191 46.08C12.0191 48.64 12.4991 50.8267 13.4591 52.64C14.4191 54.4533 15.7524 55.92 17.4591 57.04C19.1657 58.16 21.1391 58.9867 23.3791 59.52C25.6724 60.0533 28.1257 60.32 30.7391 60.32C33.6724 60.32 36.6324 60 39.6191 59.36C42.6591 58.72 45.6991 57.8133 48.7391 56.64L52.0191 66.4C48.1257 68.2133 44.2591 69.52 40.4191 70.32C36.5791 71.12 33.0057 71.52 29.6991 71.52Z" fill="white"/>
</svg>
