<svg width="52" height="72" viewBox="0 0 52 72" fill="none" xmlns="http://www.w3.org/2000/svg">
<path d="M29.1991 71.52C25.1457 71.52 21.3591 71.0133 17.8391 70C14.3191 68.9867 11.2524 67.4667 8.63906 65.44C6.02573 63.4133 3.9724 60.9067 2.47906 57.92C1.03906 54.9333 0.319063 51.4933 0.319063 47.6C0.319063 43.9733 0.879063 40.6133 1.99906 37.52C3.1724 34.4267 4.7724 31.6267 6.79906 29.12C8.87906 26.6133 11.3324 24.3733 14.1591 22.4C16.9857 20.4267 20.0791 18.7467 23.4391 17.36C26.8524 15.9733 30.4257 14.88 34.1591 14.08L34.3191 15.52C33.0391 15.1467 31.6257 14.72 30.0791 14.24C28.5324 13.76 26.8524 13.3067 25.0391 12.88C23.2791 12.4533 21.3857 12.1067 19.3591 11.84C17.3857 11.52 15.3057 11.36 13.1191 11.36C11.1991 11.36 9.38573 11.4933 7.67906 11.76C6.02573 11.9733 4.55906 12.24 3.27906 12.56L1.59906 1.68C3.14573 1.2 4.79906 0.799998 6.55906 0.479999C8.3724 0.16 10.2391 0 12.1591 0C15.0391 0 17.7057 0.266666 20.1591 0.799999C22.6124 1.28 24.9057 1.89333 27.0391 2.64C29.2257 3.38667 31.3057 4.16 33.2791 4.96C35.3057 5.70666 37.2791 6.34666 39.1991 6.88C41.1191 7.36 43.0924 7.6 45.1191 7.6H48.3191L49.3591 19.6C47.3324 19.6 44.9857 19.8667 42.3191 20.4C39.7057 20.9333 36.9857 21.7067 34.1591 22.72C31.3324 23.7333 28.5591 24.9867 25.8391 26.48C23.1724 27.9733 20.7457 29.7067 18.5591 31.68C16.4257 33.6533 14.7191 35.84 13.4391 38.24C12.1591 40.64 11.5191 43.2533 11.5191 46.08C11.5191 48.64 11.9991 50.8267 12.9591 52.64C13.9191 54.4533 15.2524 55.92 16.9591 57.04C18.6657 58.16 20.6391 58.9867 22.8791 59.52C25.1724 60.0533 27.6257 60.32 30.2391 60.32C33.1724 60.32 36.1324 60 39.1191 59.36C42.1591 58.72 45.1991 57.8133 48.2391 56.64L51.5191 66.4C47.6257 68.2133 43.7591 69.52 39.9191 70.32C36.0791 71.12 32.5057 71.52 29.1991 71.52Z" fill="white"/>
</svg>
