<svg width="52" height="92" viewBox="0 0 52 92" fill="none" xmlns="http://www.w3.org/2000/svg">
<path d="M29.1991 91.52C25.1457 91.52 21.3591 91.0133 17.8391 90C14.3191 88.9867 11.2524 87.4667 8.63906 85.44C6.02573 83.4133 3.9724 80.9067 2.47906 77.92C1.03906 74.9333 0.319063 71.4933 0.319063 67.6C0.319063 63.9733 0.879063 60.6133 1.99906 57.52C3.1724 54.4267 4.7724 51.6267 6.79906 49.12C8.87906 46.6133 11.3324 44.3733 14.1591 42.4C16.9857 40.4267 20.0791 38.7467 23.4391 37.36C26.8524 35.9733 30.4257 34.88 34.1591 34.08L34.3191 35.52C33.0391 35.1467 31.6257 34.72 30.0791 34.24C28.5324 33.76 26.8524 33.3067 25.0391 32.88C23.2791 32.4533 21.3857 32.1067 19.3591 31.84C17.3857 31.52 15.3057 31.36 13.1191 31.36C11.1991 31.36 9.38573 31.4933 7.67906 31.76C6.02573 31.9733 4.55906 32.24 3.27906 32.56L1.59906 21.68C3.14573 21.2 4.79906 20.8 6.55906 20.48C8.3724 20.16 10.2391 20 12.1591 20C15.0391 20 17.7057 20.2667 20.1591 20.8C22.6124 21.28 24.9057 21.8933 27.0391 22.64C29.2257 23.3867 31.3057 24.16 33.2791 24.96C35.3057 25.7067 37.2791 26.3467 39.1991 26.88C41.1191 27.36 43.0924 27.6 45.1191 27.6H48.3191L49.3591 39.6C47.3324 39.6 44.9857 39.8667 42.3191 40.4C39.7057 40.9333 36.9857 41.7067 34.1591 42.72C31.3324 43.7333 28.5591 44.9867 25.8391 46.48C23.1724 47.9733 20.7457 49.7067 18.5591 51.68C16.4257 53.6533 14.7191 55.84 13.4391 58.24C12.1591 60.64 11.5191 63.2533 11.5191 66.08C11.5191 68.64 11.9991 70.8267 12.9591 72.64C13.9191 74.4533 15.2524 75.92 16.9591 77.04C18.6657 78.16 20.6391 78.9867 22.8791 79.52C25.1724 80.0533 27.6257 80.32 30.2391 80.32C33.1724 80.32 36.1324 80 39.1191 79.36C42.1591 78.72 45.1991 77.8133 48.2391 76.64L51.5191 86.4C47.6257 88.2133 43.7591 89.52 39.9191 90.32C36.0791 91.12 32.5057 91.52 29.1991 91.52ZM25.4391 12.56C23.7857 12.56 22.3724 12 21.1991 10.88C20.0791 9.76 19.5191 8.37333 19.5191 6.72C19.5191 5.06667 20.0791 3.65333 21.1991 2.48C22.3724 1.30666 23.7857 0.719995 25.4391 0.719995C27.0391 0.719995 28.3991 1.30666 29.5191 2.48C30.6924 3.65333 31.2791 5.06667 31.2791 6.72C31.2791 8.37333 30.6924 9.76 29.5191 10.88C28.3991 12 27.0391 12.56 25.4391 12.56Z" fill="white"/>
</svg>
