<svg width="36" height="43" viewBox="0 0 36 43" fill="none" xmlns="http://www.w3.org/2000/svg">
<path d="M0.135938 38.8L4.05594 28.64C6.02927 29.4933 7.9226 30.1333 9.73594 30.56C11.5493 30.9867 13.3626 31.2 15.1759 31.2C17.0426 31.2 18.5893 31.04 19.8159 30.72C21.0959 30.3467 22.0559 29.8133 22.6959 29.12C23.3359 28.4267 23.6559 27.6 23.6559 26.64C23.6559 25.7333 23.3626 24.48 22.7759 22.88C22.2426 21.28 21.2559 19.2 19.8159 16.64C18.3759 14.0267 16.2693 10.8 13.4959 6.96L23.0159 0.639998C25.5759 4.26666 27.7893 7.81333 29.6559 11.28C31.5226 14.6933 32.9626 17.8933 33.9759 20.88C35.0426 23.8133 35.5759 26.4 35.5759 28.64C35.5759 31.4133 34.8293 33.84 33.3359 35.92C31.8959 37.9467 29.7359 39.5467 26.8559 40.72C24.0293 41.8933 20.5359 42.48 16.3759 42.48C14.8293 42.48 13.0959 42.3467 11.1759 42.08C9.25594 41.8133 7.30927 41.4133 5.33594 40.88C3.41594 40.3467 1.6826 39.6533 0.135938 38.8Z" fill="white"/>
</svg>
