<svg width="36" height="61" viewBox="0 0 36 61" fill="none" xmlns="http://www.w3.org/2000/svg">
<path d="M0.135938 56.8L4.05594 46.64C6.02927 47.4933 7.9226 48.1333 9.73594 48.56C11.5493 48.9867 13.3626 49.2 15.1759 49.2C17.0426 49.2 18.5893 49.04 19.8159 48.72C21.0959 48.3467 22.0559 47.8133 22.6959 47.12C23.3359 46.4267 23.6559 45.6 23.6559 44.64C23.6559 43.7333 23.3626 42.48 22.7759 40.88C22.2426 39.28 21.2559 37.2 19.8159 34.64C18.3759 32.0267 16.2693 28.8 13.4959 24.96L23.0159 18.64C25.5759 22.2667 27.7893 25.8133 29.6559 29.28C31.5226 32.6933 32.9626 35.8933 33.9759 38.88C35.0426 41.8133 35.5759 44.4 35.5759 46.64C35.5759 49.4133 34.8293 51.84 33.3359 53.92C31.8959 55.9467 29.7359 57.5467 26.8559 58.72C24.0293 59.8933 20.5359 60.48 16.3759 60.48C14.8293 60.48 13.0959 60.3467 11.1759 60.08C9.25594 59.8133 7.30927 59.4133 5.33594 58.88C3.41594 58.3467 1.6826 57.6533 0.135938 56.8ZM15.2559 12.56C13.6026 12.56 12.1893 12 11.0159 10.88C9.89594 9.76 9.33594 8.37333 9.33594 6.72C9.33594 5.06667 9.89594 3.65333 11.0159 2.48C12.1893 1.30666 13.6026 0.719995 15.2559 0.719995C16.8559 0.719995 18.2159 1.30666 19.3359 2.48C20.5093 3.65333 21.0959 5.06667 21.0959 6.72C21.0959 8.37333 20.5093 9.76 19.3359 10.88C18.2159 12 16.8559 12.56 15.2559 12.56Z" fill="white"/>
</svg>
