<svg width="32" height="50" viewBox="0 0 32 50" fill="none" xmlns="http://www.w3.org/2000/svg">
<path d="M4.41281 49.4L0.332812 39.16C4.91948 37.56 8.62615 35.8 11.4528 33.88C14.3328 31.96 16.4395 29.9067 17.7728 27.72C19.1595 25.5333 19.8528 23.2667 19.8528 20.92C19.8528 19.4267 19.6395 17.88 19.2128 16.28C18.7861 14.6267 18.1728 12.8933 17.3728 11.08C16.6261 9.26667 15.7195 7.37333 14.6528 5.4L25.1328 0.359999C26.9995 3.93333 28.4395 7.34667 29.4528 10.6C30.5195 13.8533 31.0528 16.8933 31.0528 19.72C31.0528 22.3333 30.7061 24.84 30.0128 27.24C29.3728 29.64 28.3595 31.88 26.9728 33.96C25.6395 36.0933 23.9061 38.0933 21.7728 39.96C19.6395 41.8267 17.1328 43.5333 14.2528 45.08C11.3728 46.68 8.09281 48.12 4.41281 49.4Z" fill="white"/>
</svg>
