<svg width="32" height="70" viewBox="0 0 32 70" fill="none" xmlns="http://www.w3.org/2000/svg">
<path d="M4.41281 69.4L0.332812 59.16C4.91948 57.56 8.62615 55.8 11.4528 53.88C14.3328 51.96 16.4395 49.9067 17.7728 47.72C19.1595 45.5333 19.8528 43.2667 19.8528 40.92C19.8528 39.4267 19.6395 37.88 19.2128 36.28C18.7861 34.6267 18.1728 32.8933 17.3728 31.08C16.6261 29.2667 15.7195 27.3733 14.6528 25.4L25.1328 20.36C26.9995 23.9333 28.4395 27.3467 29.4528 30.6C30.5195 33.8533 31.0528 36.8933 31.0528 39.72C31.0528 42.3333 30.7061 44.84 30.0128 47.24C29.3728 49.64 28.3595 51.88 26.9728 53.96C25.6395 56.0933 23.9061 58.0933 21.7728 59.96C19.6395 61.8267 17.1328 63.5333 14.2528 65.08C11.3728 66.68 8.09281 68.12 4.41281 69.4ZM22.0928 12.2C20.4395 12.2 19.0261 11.64 17.8528 10.52C16.7328 9.4 16.1728 8.01333 16.1728 6.36C16.1728 4.70666 16.7328 3.29333 17.8528 2.12C19.0261 0.946666 20.4395 0.359999 22.0928 0.359999C23.6928 0.359999 25.0528 0.946666 26.1728 2.12C27.3461 3.29333 27.9328 4.70666 27.9328 6.36C27.9328 8.01333 27.3461 9.4 26.1728 10.52C25.0528 11.64 23.6928 12.2 22.0928 12.2Z" fill="white"/>
</svg>
