<svg width="104" height="57" viewBox="0 0 104 57" fill="none" xmlns="http://www.w3.org/2000/svg">
<path d="M25.6353 56.56C21.7953 56.56 18.3286 56.1067 15.2353 55.2C12.142 54.3467 9.47531 53.04 7.23531 51.28C4.99531 49.52 3.26198 47.3333 2.03531 44.72C0.861979 42.16 0.275313 39.1733 0.275313 35.76C0.275313 34.5333 0.381979 33.0933 0.595313 31.44C0.808646 29.7867 1.20865 27.92 1.79531 25.84C2.38198 23.7067 3.26198 21.3333 4.43531 18.72L14.2753 22.16C13.6886 23.8133 13.182 25.3333 12.7553 26.72C12.3286 28.0533 12.0086 29.3067 11.7953 30.48C11.582 31.6 11.4753 32.72 11.4753 33.84C11.4753 35.92 11.9553 37.84 12.9153 39.6C13.8753 41.36 15.422 42.7467 17.5553 43.76C19.6886 44.8267 22.4886 45.36 25.9553 45.36C29.1553 45.36 31.822 44.9867 33.9553 44.24C36.0886 43.5467 37.7686 42.56 38.9953 41.28C40.222 40.0533 41.102 38.6133 41.6353 36.96C42.1686 35.3067 42.4353 33.52 42.4353 31.6C42.4353 30.1067 42.2486 28.4267 41.8753 26.56C41.5553 24.6933 41.0753 22.6667 40.4353 20.48C39.7953 18.24 39.0753 15.8933 38.2753 13.44L49.4753 10.56C50.0086 12.5867 50.4353 14.32 50.7553 15.76C51.1286 17.2 51.4486 18.4 51.7153 19.36C51.982 20.2667 52.1953 21.0133 52.3553 21.6C52.8886 23.2 53.5286 24.4267 54.2753 25.28C55.0753 26.08 55.9553 26.6133 56.9153 26.88C57.9286 27.1467 59.0486 27.28 60.2753 27.28C61.2886 27.28 62.222 27.12 63.0753 26.8C63.9286 26.48 64.702 25.8133 65.3953 24.8C66.142 23.7333 66.8086 22.1067 67.3953 19.92C67.982 17.7333 68.5153 14.72 68.9953 10.88L79.5553 12.56C79.342 13.7867 79.1286 15.0933 78.9153 16.48C78.702 17.8667 78.5153 19.1733 78.3553 20.4C78.1953 21.5733 78.1153 22.5333 78.1153 23.28C78.1153 23.9733 78.302 24.6133 78.6753 25.2C79.102 25.7867 79.8486 26.2667 80.9153 26.64C81.982 27.0133 83.502 27.2 85.4753 27.2C86.9153 27.2 88.1686 27.0667 89.2353 26.8C90.302 26.48 91.1287 25.92 91.7153 25.12C92.302 24.2667 92.5953 23.0667 92.5953 21.52C92.5953 20.1867 92.382 18.5867 91.9553 16.72C91.5286 14.8 90.9686 12.72 90.2753 10.48C89.6353 8.24 88.8886 5.94667 88.0353 3.6L99.3153 0.239997C100.169 2.53333 100.915 4.98666 101.555 7.6C102.249 10.16 102.782 12.6667 103.155 15.12C103.582 17.52 103.795 19.6267 103.795 21.44C103.795 24.2667 103.369 26.7467 102.515 28.88C101.715 31.0133 100.515 32.8 98.9153 34.24C97.3686 35.6267 95.4753 36.6667 93.2353 37.36C90.9953 38.0533 88.4887 38.4 85.7153 38.4C83.6886 38.4 81.822 38.1867 80.1153 37.76C78.462 37.28 77.022 36.6133 75.7953 35.76C74.622 34.9067 73.7153 33.8667 73.0753 32.64C72.4353 31.36 72.142 29.92 72.1953 28.32H74.9153C74.1153 31.2533 73.022 33.44 71.6353 34.88C70.2486 36.32 68.702 37.28 66.9953 37.76C65.2886 38.1867 63.5553 38.4 61.7953 38.4C60.4086 38.4 59.0753 38.2667 57.7953 38C56.5153 37.7333 55.342 37.3067 54.2753 36.72C53.262 36.08 52.382 35.2533 51.6353 34.24C50.8886 33.1733 50.382 31.8933 50.1153 30.4L53.0753 33.6C52.9686 37.2267 52.2486 40.4533 50.9153 43.28C49.582 46.1067 47.7153 48.5067 45.3153 50.48C42.9686 52.4533 40.1153 53.9467 36.7553 54.96C33.4486 56.0267 29.742 56.56 25.6353 56.56Z" fill="white"/>
</svg>
