<svg width="104" height="79" viewBox="0 0 104 79" fill="none" xmlns="http://www.w3.org/2000/svg">
<path d="M25.6353 78.56C21.7953 78.56 18.3286 78.1067 15.2353 77.2C12.142 76.3467 9.47531 75.04 7.23531 73.28C4.99531 71.52 3.26198 69.3333 2.03531 66.72C0.861979 64.16 0.275313 61.1733 0.275313 57.76C0.275313 56.5333 0.381979 55.0933 0.595313 53.44C0.808646 51.7867 1.20865 49.92 1.79531 47.84C2.38198 45.7067 3.26198 43.3333 4.43531 40.72L14.2753 44.16C13.6886 45.8133 13.182 47.3333 12.7553 48.72C12.3286 50.0533 12.0086 51.3067 11.7953 52.48C11.582 53.6 11.4753 54.72 11.4753 55.84C11.4753 57.92 11.9553 59.84 12.9153 61.6C13.8753 63.36 15.422 64.7467 17.5553 65.76C19.6886 66.8267 22.4886 67.36 25.9553 67.36C29.1553 67.36 31.822 66.9867 33.9553 66.24C36.0886 65.5467 37.7686 64.56 38.9953 63.28C40.222 62.0533 41.102 60.6133 41.6353 58.96C42.1686 57.3067 42.4353 55.52 42.4353 53.6C42.4353 52.1067 42.2486 50.4267 41.8753 48.56C41.5553 46.6933 41.0753 44.6667 40.4353 42.48C39.7953 40.24 39.0753 37.8933 38.2753 35.44L49.4753 32.56C50.0086 34.5867 50.4353 36.32 50.7553 37.76C51.1286 39.2 51.4486 40.4 51.7153 41.36C51.982 42.2667 52.1953 43.0133 52.3553 43.6C52.8886 45.2 53.5286 46.4267 54.2753 47.28C55.0753 48.08 55.9553 48.6133 56.9153 48.88C57.9286 49.1467 59.0486 49.28 60.2753 49.28C61.2886 49.28 62.222 49.12 63.0753 48.8C63.9286 48.48 64.702 47.8133 65.3953 46.8C66.142 45.7333 66.8086 44.1067 67.3953 41.92C67.982 39.7333 68.5153 36.72 68.9953 32.88L79.5553 34.56C79.342 35.7867 79.1286 37.0933 78.9153 38.48C78.702 39.8667 78.5153 41.1733 78.3553 42.4C78.1953 43.5733 78.1153 44.5333 78.1153 45.28C78.1153 45.9733 78.302 46.6133 78.6753 47.2C79.102 47.7867 79.8486 48.2667 80.9153 48.64C81.982 49.0133 83.502 49.2 85.4753 49.2C86.9153 49.2 88.1686 49.0667 89.2353 48.8C90.302 48.48 91.1287 47.92 91.7153 47.12C92.302 46.2667 92.5953 45.0667 92.5953 43.52C92.5953 42.1867 92.382 40.5867 91.9553 38.72C91.5286 36.8 90.9686 34.72 90.2753 32.48C89.6353 30.24 88.8886 27.9467 88.0353 25.6L99.3153 22.24C100.169 24.5333 100.915 26.9867 101.555 29.6C102.249 32.16 102.782 34.6667 103.155 37.12C103.582 39.52 103.795 41.6267 103.795 43.44C103.795 46.2667 103.369 48.7467 102.515 50.88C101.715 53.0133 100.515 54.8 98.9153 56.24C97.3686 57.6267 95.4753 58.6667 93.2353 59.36C90.9953 60.0533 88.4887 60.4 85.7153 60.4C83.6886 60.4 81.822 60.1867 80.1153 59.76C78.462 59.28 77.022 58.6133 75.7953 57.76C74.622 56.9067 73.7153 55.8667 73.0753 54.64C72.4353 53.36 72.142 51.92 72.1953 50.32H74.9153C74.1153 53.2533 73.022 55.44 71.6353 56.88C70.2486 58.32 68.702 59.28 66.9953 59.76C65.2886 60.1867 63.5553 60.4 61.7953 60.4C60.4086 60.4 59.0753 60.2667 57.7953 60C56.5153 59.7333 55.342 59.3067 54.2753 58.72C53.262 58.08 52.382 57.2533 51.6353 56.24C50.8886 55.1733 50.382 53.8933 50.1153 52.4L53.0753 55.6C52.9686 59.2267 52.2486 62.4533 50.9153 65.28C49.582 68.1067 47.7153 70.5067 45.3153 72.48C42.9686 74.4533 40.1153 75.9467 36.7553 76.96C33.4486 78.0267 29.742 78.56 25.6353 78.56ZM69.3153 10.88C67.982 10.88 66.8086 10.3733 65.7953 9.36C64.8353 8.34667 64.3553 7.14667 64.3553 5.76C64.3553 4.37333 64.8353 3.2 65.7953 2.24C66.8086 1.28 67.982 0.799999 69.3153 0.799999C70.702 0.799999 71.8753 1.28 72.8353 2.24C73.7953 3.2 74.2753 4.37333 74.2753 5.76C74.2753 7.14667 73.7953 8.34667 72.8353 9.36C71.8753 10.3733 70.702 10.88 69.3153 10.88ZM62.9153 21.44C61.582 21.44 60.4086 20.9333 59.3953 19.92C58.4353 18.9067 57.9553 17.7067 57.9553 16.32C57.9553 14.9333 58.4353 13.76 59.3953 12.8C60.4086 11.84 61.582 11.36 62.9153 11.36C64.302 11.36 65.4753 11.84 66.4353 12.8C67.3953 13.76 67.8753 14.9333 67.8753 16.32C67.8753 17.7067 67.3953 18.9067 66.4353 19.92C65.4753 20.9333 64.302 21.44 62.9153 21.44ZM75.3153 21.44C73.982 21.44 72.8087 20.9333 71.7953 19.92C70.8353 18.9067 70.3553 17.7067 70.3553 16.32C70.3553 14.9333 70.8353 13.76 71.7953 12.8C72.8087 11.84 73.982 11.36 75.3153 11.36C76.702 11.36 77.8753 11.84 78.8353 12.8C79.7953 13.76 80.2753 14.9333 80.2753 16.32C80.2753 17.7067 79.7953 18.9067 78.8353 19.92C77.8753 20.9333 76.702 21.44 75.3153 21.44Z" fill="white"/>
</svg>
