<svg width="109" height="55" viewBox="0 0 109 55" fill="none" xmlns="http://www.w3.org/2000/svg">
<path d="M25.485 54.48C21.9117 54.48 18.5783 54.0267 15.485 53.12C12.445 52.2667 9.77833 50.96 7.485 49.2C5.19167 47.4933 3.405 45.3333 2.125 42.72C0.845 40.16 0.205 37.1733 0.205 33.76C0.205 32.5333 0.311667 31.0933 0.525 29.44C0.738333 27.7867 1.13833 25.92 1.725 23.84C2.31167 21.7067 3.19167 19.3333 4.365 16.72L14.205 20.16C13.6183 21.8133 13.1117 23.3333 12.685 24.72C12.2583 26.0533 11.9383 27.3067 11.725 28.48C11.5117 29.6 11.405 30.72 11.405 31.84C11.405 33.9733 11.965 35.8933 13.085 37.6C14.2583 39.36 15.9117 40.7467 18.045 41.76C20.2317 42.7733 22.8183 43.28 25.805 43.28C28.685 43.28 31.165 42.9867 33.245 42.4C35.325 41.8133 37.0317 40.9333 38.365 39.76C39.7517 38.64 40.765 37.2533 41.405 35.6C42.045 33.8933 42.365 31.9467 42.365 29.76C42.365 27.4667 41.9383 24.7733 41.085 21.68C40.2317 18.5867 39.2717 15.1733 38.205 11.44L49.405 8.56C49.9383 10.5867 50.365 12.3467 50.685 13.84C51.0583 15.28 51.3517 16.48 51.565 17.44C51.8317 18.3467 52.0717 19.0667 52.285 19.6C52.7117 20.72 53.325 21.68 54.125 22.48C54.925 23.2267 56.0983 23.8667 57.645 24.4C59.245 24.88 61.3783 25.2533 64.045 25.52C66.7117 25.7333 70.1517 25.84 74.365 25.84C77.885 25.84 80.925 25.7333 83.485 25.52C86.0983 25.2533 88.285 24.9067 90.045 24.48C91.8583 24 93.2983 23.44 94.365 22.8C95.485 22.16 96.285 21.44 96.765 20.64C97.2983 19.7867 97.565 18.88 97.565 17.92C97.565 16.96 97.325 16.0267 96.845 15.12C96.4183 14.2133 95.6983 13.4667 94.685 12.88C93.6717 12.2933 92.365 12 90.765 12C88.685 12 86.605 12.5067 84.525 13.52C82.445 14.5333 80.4183 15.8667 78.445 17.52C76.525 19.12 74.7383 20.8267 73.085 22.64C71.485 24.4533 70.0717 26.16 68.845 27.76L57.405 26.4C58.9517 23.8933 60.685 21.4133 62.605 18.96C64.5783 16.4533 66.685 14.1067 68.925 11.92C71.165 9.73333 73.5117 7.81333 75.965 6.16C78.4717 4.50667 81.0583 3.2 83.725 2.24C86.3917 1.28 89.085 0.799998 91.805 0.799998C95.3783 0.799998 98.4183 1.52 100.925 2.96C103.432 4.34666 105.352 6.26666 106.685 8.72C108.072 11.1733 108.765 13.9733 108.765 17.12C108.765 20.0533 108.152 22.7467 106.925 25.2C105.752 27.6 103.832 29.7067 101.165 31.52C98.5517 33.28 95.1117 34.64 90.845 35.6C86.5783 36.56 81.405 37.04 75.325 37.04C72.285 37.04 69.2983 36.8533 66.365 36.48C63.485 36.16 60.845 35.6533 58.445 34.96C56.045 34.2667 54.0183 33.4133 52.365 32.4C50.7117 31.3333 49.5917 30.1067 49.005 28.72L53.485 31.2C53.325 34.8267 52.5517 38.08 51.165 40.96C49.7783 43.84 47.8583 46.2667 45.405 48.24C43.005 50.2667 40.125 51.8133 36.765 52.88C33.405 53.9467 29.645 54.48 25.485 54.48Z" fill="white"/>
</svg>
