<svg width="109" height="74" viewBox="0 0 109 74" fill="none" xmlns="http://www.w3.org/2000/svg">
<path d="M25.485 73.48C21.9117 73.48 18.5783 73.0267 15.485 72.12C12.445 71.2667 9.77833 69.96 7.485 68.2C5.19167 66.4933 3.405 64.3333 2.125 61.72C0.845 59.16 0.205 56.1733 0.205 52.76C0.205 51.5333 0.311667 50.0933 0.525 48.44C0.738333 46.7867 1.13833 44.92 1.725 42.84C2.31167 40.7067 3.19167 38.3333 4.365 35.72L14.205 39.16C13.6183 40.8133 13.1117 42.3333 12.685 43.72C12.2583 45.0533 11.9383 46.3067 11.725 47.48C11.5117 48.6 11.405 49.72 11.405 50.84C11.405 52.9733 11.965 54.8933 13.085 56.6C14.2583 58.36 15.9117 59.7467 18.045 60.76C20.2317 61.7733 22.8183 62.28 25.805 62.28C28.685 62.28 31.165 61.9867 33.245 61.4C35.325 60.8133 37.0317 59.9333 38.365 58.76C39.7517 57.64 40.765 56.2533 41.405 54.6C42.045 52.8933 42.365 50.9467 42.365 48.76C42.365 46.4667 41.9383 43.7733 41.085 40.68C40.2317 37.5867 39.2717 34.1733 38.205 30.44L49.405 27.56C49.9383 29.5867 50.365 31.3467 50.685 32.84C51.0583 34.28 51.3517 35.48 51.565 36.44C51.8317 37.3467 52.0717 38.0667 52.285 38.6C52.7117 39.72 53.325 40.68 54.125 41.48C54.925 42.2267 56.0983 42.8667 57.645 43.4C59.245 43.88 61.3783 44.2533 64.045 44.52C66.7117 44.7333 70.1517 44.84 74.365 44.84C77.885 44.84 80.925 44.7333 83.485 44.52C86.0983 44.2533 88.285 43.9067 90.045 43.48C91.8583 43 93.2983 42.44 94.365 41.8C95.485 41.16 96.285 40.44 96.765 39.64C97.2983 38.7867 97.565 37.88 97.565 36.92C97.565 35.96 97.325 35.0267 96.845 34.12C96.4183 33.2133 95.6983 32.4667 94.685 31.88C93.6717 31.2933 92.365 31 90.765 31C88.685 31 86.605 31.5067 84.525 32.52C82.445 33.5333 80.4183 34.8667 78.445 36.52C76.525 38.12 74.7383 39.8267 73.085 41.64C71.485 43.4533 70.0717 45.16 68.845 46.76L57.405 45.4C58.9517 42.8933 60.685 40.4133 62.605 37.96C64.5783 35.4533 66.685 33.1067 68.925 30.92C71.165 28.7333 73.5117 26.8133 75.965 25.16C78.4717 23.5067 81.0583 22.2 83.725 21.24C86.3917 20.28 89.085 19.8 91.805 19.8C95.3783 19.8 98.4183 20.52 100.925 21.96C103.432 23.3467 105.352 25.2667 106.685 27.72C108.072 30.1733 108.765 32.9733 108.765 36.12C108.765 39.0533 108.152 41.7467 106.925 44.2C105.752 46.6 103.832 48.7067 101.165 50.52C98.5517 52.28 95.1117 53.64 90.845 54.6C86.5783 55.56 81.405 56.04 75.325 56.04C72.285 56.04 69.2983 55.8533 66.365 55.48C63.485 55.16 60.845 54.6533 58.445 53.96C56.045 53.2667 54.0183 52.4133 52.365 51.4C50.7117 50.3333 49.5917 49.1067 49.005 47.72L53.485 50.2C53.325 53.8267 52.5517 57.08 51.165 59.96C49.7783 62.84 47.8583 65.2667 45.405 67.24C43.005 69.2667 40.125 70.8133 36.765 71.88C33.405 72.9467 29.645 73.48 25.485 73.48ZM88.925 12.6C87.2717 12.6 85.8583 12.04 84.685 10.92C83.565 9.8 83.005 8.41333 83.005 6.76C83.005 5.10667 83.565 3.69333 84.685 2.52C85.8583 1.34666 87.2717 0.759997 88.925 0.759997C90.525 0.759997 91.885 1.34666 93.005 2.52C94.1783 3.69333 94.765 5.10667 94.765 6.76C94.765 8.41333 94.1783 9.8 93.005 10.92C91.885 12.04 90.525 12.6 88.925 12.6Z" fill="white"/>
</svg>
