<svg width="64" height="61" viewBox="0 0 64 61" fill="none" xmlns="http://www.w3.org/2000/svg">
<path d="M30.21 60.04C27.4367 60.04 24.7167 59.9867 22.05 59.88C19.3833 59.8267 16.7967 59.7467 14.29 59.64C11.7833 59.5333 9.41 59.3733 7.17 59.16C4.93 58.9467 2.82333 58.7333 0.85 58.52L2.13 47.48C4.79667 47.7467 7.27667 47.9867 9.57 48.2C11.9167 48.36 14.1567 48.4933 16.29 48.6C18.4233 48.7067 20.5567 48.7867 22.69 48.84C24.8233 48.84 27.01 48.84 29.25 48.84C33.6233 48.84 37.3033 48.6533 40.29 48.28C43.2767 47.9067 45.65 47.3733 47.41 46.68C49.2233 45.9867 50.5033 45.16 51.25 44.2C52.05 43.24 52.45 42.2 52.45 41.08C52.45 40.0667 52.1833 39.1067 51.65 38.2C51.17 37.2933 50.4233 36.5467 49.41 35.96C48.45 35.3733 47.2233 35.08 45.73 35.08C43.7033 35.08 41.7033 35.56 39.73 36.52C37.7567 37.48 35.8367 38.76 33.97 40.36C32.1567 41.9067 30.45 43.6133 28.85 45.48C27.25 47.2933 25.81 49.0533 24.53 50.76L12.29 49.4C14.4767 45.9867 16.85 42.76 19.41 39.72C22.0233 36.6267 24.7967 33.9067 27.73 31.56C30.7167 29.16 33.81 27.2933 37.01 25.96C40.21 24.5733 43.4633 23.88 46.77 23.88C50.1833 23.88 53.1433 24.5733 55.65 25.96C58.1567 27.3467 60.1033 29.2667 61.49 31.72C62.93 34.1733 63.65 37 63.65 40.2C63.65 44.04 62.5567 47.4533 60.37 50.44C58.1833 53.4267 54.6367 55.7733 49.73 57.48C44.8767 59.1867 38.37 60.04 30.21 60.04ZM16.29 51.08L14.61 0.439996H25.81L27.25 38.68L16.29 51.08ZM45.25 16.44C43.5967 16.44 42.1833 15.88 41.01 14.76C39.89 13.64 39.33 12.2533 39.33 10.6C39.33 8.94666 39.89 7.53333 41.01 6.36C42.1833 5.18666 43.5967 4.6 45.25 4.6C46.85 4.6 48.21 5.18666 49.33 6.36C50.5033 7.53333 51.09 8.94666 51.09 10.6C51.09 12.2533 50.5033 13.64 49.33 14.76C48.21 15.88 46.85 16.44 45.25 16.44Z" fill="white"/>
</svg>
