<svg width="52" height="77" viewBox="0 0 52 77" fill="none" xmlns="http://www.w3.org/2000/svg">
<path d="M29.4475 76.52C25.8742 76.52 22.3808 76.0933 18.9675 75.24C15.6075 74.3867 12.5675 73.0267 9.8475 71.16C7.1275 69.3467 4.9675 67 3.3675 64.12C1.7675 61.24 0.9675 57.7733 0.9675 53.72C0.9675 49.3467 1.8475 45.3467 3.6075 41.72C5.3675 38.04 7.8475 34.7867 11.0475 31.96C14.2475 29.1333 18.0342 26.7867 22.4075 24.92C26.8342 23 31.6608 21.64 36.8875 20.84L39.5275 31.4C34.8342 32.2533 30.7542 33.3733 27.2875 34.76C23.8742 36.1467 21.0475 37.7733 18.8075 39.64C16.5675 41.5067 14.8875 43.5067 13.7675 45.64C12.7008 47.8267 12.1675 50.12 12.1675 52.52C12.1675 54.44 12.5142 56.12 13.2075 57.56C13.9542 59 14.9408 60.2 16.1675 61.16C17.3942 62.1733 18.7542 62.9733 20.2475 63.56C21.7408 64.2 23.2875 64.6533 24.8875 64.92C26.4875 65.1867 28.0075 65.32 29.4475 65.32C33.1275 65.32 36.5408 64.9733 39.6875 64.28C42.8875 63.5867 45.6875 62.7333 48.0875 61.72L51.2875 72.04C50.0075 72.68 48.1942 73.3467 45.8475 74.04C43.5542 74.7333 40.9675 75.32 38.0875 75.8C35.2608 76.28 32.3808 76.52 29.4475 76.52ZM13.5275 32.2C11.6608 31.4533 9.9275 30.3867 8.3275 29C6.78083 27.6133 5.5275 25.9067 4.5675 23.88C3.66083 21.8 3.2075 19.4267 3.2075 16.76C3.2075 13.4 4.0875 10.4933 5.8475 8.04C7.6075 5.58667 9.95417 3.69333 12.8875 2.36C15.8208 1.02666 19.0208 0.359998 22.4875 0.359998C24.1942 0.359998 25.7675 0.466665 27.2075 0.679998C28.7008 0.893332 30.2208 1.21333 31.7675 1.64L30.0075 12.28C28.8875 12.0133 27.7408 11.8 26.5675 11.64C25.3942 11.48 24.3542 11.4 23.4475 11.4C21.5808 11.4 19.9542 11.6667 18.5675 12.2C17.2342 12.7333 16.1942 13.5067 15.4475 14.52C14.7542 15.48 14.4075 16.6267 14.4075 17.96C14.4075 19.0267 14.7275 20.04 15.3675 21C16.0608 21.96 16.9408 22.8133 18.0075 23.56C19.0742 24.2533 20.2475 24.84 21.5275 25.32C22.8075 25.7467 24.0608 25.9867 25.2875 26.04L13.5275 32.2Z" fill="white"/>
</svg>
