<svg width="52" height="96" viewBox="0 0 52 96" fill="none" xmlns="http://www.w3.org/2000/svg">
<path d="M29.4475 95.52C25.8742 95.52 22.3808 95.0933 18.9675 94.24C15.6075 93.3867 12.5675 92.0267 9.8475 90.16C7.1275 88.3467 4.9675 86 3.3675 83.12C1.7675 80.24 0.9675 76.7733 0.9675 72.72C0.9675 68.3467 1.8475 64.3467 3.6075 60.72C5.3675 57.04 7.8475 53.7867 11.0475 50.96C14.2475 48.1333 18.0342 45.7867 22.4075 43.92C26.8342 42 31.6608 40.64 36.8875 39.84L39.5275 50.4C34.8342 51.2533 30.7542 52.3733 27.2875 53.76C23.8742 55.1467 21.0475 56.7733 18.8075 58.64C16.5675 60.5067 14.8875 62.5067 13.7675 64.64C12.7008 66.8267 12.1675 69.12 12.1675 71.52C12.1675 73.44 12.5142 75.12 13.2075 76.56C13.9542 78 14.9408 79.2 16.1675 80.16C17.3942 81.1733 18.7542 81.9733 20.2475 82.56C21.7408 83.2 23.2875 83.6533 24.8875 83.92C26.4875 84.1867 28.0075 84.32 29.4475 84.32C33.1275 84.32 36.5408 83.9733 39.6875 83.28C42.8875 82.5867 45.6875 81.7333 48.0875 80.72L51.2875 91.04C50.0075 91.68 48.1942 92.3467 45.8475 93.04C43.5542 93.7333 40.9675 94.32 38.0875 94.8C35.2608 95.28 32.3808 95.52 29.4475 95.52ZM13.5275 51.2C11.6608 50.4533 9.9275 49.3867 8.3275 48C6.78083 46.6133 5.5275 44.9067 4.5675 42.88C3.66083 40.8 3.2075 38.4267 3.2075 35.76C3.2075 32.4 4.0875 29.4933 5.8475 27.04C7.6075 24.5867 9.95417 22.6933 12.8875 21.36C15.8208 20.0267 19.0208 19.36 22.4875 19.36C24.1942 19.36 25.7675 19.4667 27.2075 19.68C28.7008 19.8933 30.2208 20.2133 31.7675 20.64L30.0075 31.28C28.8875 31.0133 27.7408 30.8 26.5675 30.64C25.3942 30.48 24.3542 30.4 23.4475 30.4C21.5808 30.4 19.9542 30.6667 18.5675 31.2C17.2342 31.7333 16.1942 32.5067 15.4475 33.52C14.7542 34.48 14.4075 35.6267 14.4075 36.96C14.4075 38.0267 14.7275 39.04 15.3675 40C16.0608 40.96 16.9408 41.8133 18.0075 42.56C19.0742 43.2533 20.2475 43.84 21.5275 44.32C22.8075 44.7467 24.0608 44.9867 25.2875 45.04L13.5275 51.2ZM22.5675 11.92C20.9142 11.92 19.5008 11.36 18.3275 10.24C17.2075 9.12 16.6475 7.73333 16.6475 6.08C16.6475 4.42666 17.2075 3.01333 18.3275 1.84C19.5008 0.666665 20.9142 0.079998 22.5675 0.079998C24.1675 0.079998 25.5275 0.666665 26.6475 1.84C27.8208 3.01333 28.4075 4.42666 28.4075 6.08C28.4075 7.73333 27.8208 9.12 26.6475 10.24C25.5275 11.36 24.1675 11.92 22.5675 11.92Z" fill="white"/>
</svg>
