<svg width="77" height="68" viewBox="0 0 77 68" fill="none" xmlns="http://www.w3.org/2000/svg">
<path d="M31.9434 67.68L34.0234 56.48C38.5568 56.48 42.5301 56.4267 45.9434 56.32C49.3568 56.2133 52.2368 56.0533 54.5834 55.84C56.9834 55.6267 58.9034 55.3333 60.3434 54.96C61.7834 54.5333 62.7968 54.0267 63.3834 53.44C64.1301 52.6933 64.6901 51.4933 65.0634 49.84C65.4368 48.1867 65.6234 45.7867 65.6234 42.64C65.6234 40.6667 65.4901 38.9333 65.2234 37.44C65.0101 35.9467 64.6634 34.6933 64.1834 33.68C63.7034 32.6667 63.1168 31.92 62.4234 31.44C61.7834 30.9067 61.0368 30.64 60.1834 30.64C59.3301 30.64 58.5301 30.9333 57.7834 31.52C57.0368 32.0533 56.4234 32.8 55.9434 33.76C55.4634 34.72 55.2234 35.8133 55.2234 37.04C55.2234 37.7333 55.4101 38.3467 55.7834 38.88C56.1568 39.4133 56.7434 39.8133 57.5434 40.08C58.3434 40.3467 59.3568 40.48 60.5834 40.48C61.7568 40.48 62.9834 40.3467 64.2634 40.08C65.5968 39.76 66.8234 39.3333 67.9434 38.8L68.2634 48.32C67.4101 48.96 66.4234 49.52 65.3034 50C64.1834 50.4267 62.9834 50.7733 61.7034 51.04C60.4768 51.2533 59.2234 51.36 57.9434 51.36C55.1168 51.36 52.6634 50.9867 50.5834 50.24C48.5568 49.44 46.9834 48.16 45.8634 46.4C44.7434 44.64 44.1834 42.24 44.1834 39.2C44.1834 36.8533 44.5834 34.5333 45.3834 32.24C46.1834 29.8933 47.3301 27.7867 48.8234 25.92C50.3168 24 52.0768 22.48 54.1034 21.36C56.1301 20.1867 58.3701 19.6 60.8234 19.6C64.4501 19.6 67.4368 20.6667 69.7834 22.8C72.1834 24.88 73.9434 27.7067 75.0634 31.28C76.2368 34.8 76.8234 38.72 76.8234 43.04C76.8234 45.5467 76.5834 48 76.1034 50.4C75.6768 52.7467 75.0634 54.8533 74.2634 56.72C73.5168 58.5867 72.6634 60.08 71.7034 61.2C70.6901 62.3733 69.0901 63.3867 66.9034 64.24C64.7168 65.0933 61.9434 65.76 58.5834 66.24C55.2768 66.72 51.3834 67.0667 46.9034 67.28C42.4768 67.5467 37.4901 67.68 31.9434 67.68ZM31.9434 67.68C26.1834 67.68 21.3034 67.2267 17.3034 66.32C13.3568 65.4667 10.1301 64.24 7.62344 62.64C5.1701 60.9867 3.38344 59.0667 2.26344 56.88C1.14344 54.6933 0.583438 52.2933 0.583438 49.68C0.583438 47.9733 0.716771 46.2667 0.983438 44.56C1.30344 42.8 1.67677 41.0933 2.10344 39.44C2.58344 37.7867 3.0101 36.2933 3.38344 34.96L13.3834 37.28C13.1701 38.24 12.9301 39.28 12.6634 40.4C12.3968 41.52 12.1834 42.6133 12.0234 43.68C11.8634 44.6933 11.7834 45.6267 11.7834 46.48C11.7834 48.4533 12.4768 50.2133 13.8634 51.76C15.3034 53.2533 17.6501 54.4267 20.9034 55.28C24.1568 56.08 28.5301 56.48 34.0234 56.48L35.6234 65.12L31.9434 67.68ZM60.5834 12.16C58.9301 12.16 57.5168 11.6 56.3434 10.48C55.2234 9.36 54.6634 7.97333 54.6634 6.32C54.6634 4.66666 55.2234 3.25333 56.3434 2.08C57.5168 0.906664 58.9301 0.319997 60.5834 0.319997C62.1834 0.319997 63.5434 0.906664 64.6634 2.08C65.8368 3.25333 66.4234 4.66666 66.4234 6.32C66.4234 7.97333 65.8368 9.36 64.6634 10.48C63.5434 11.6 62.1834 12.16 60.5834 12.16Z" fill="white"/>
</svg>
