<svg width="62" height="71" viewBox="0 0 62 71" fill="none" xmlns="http://www.w3.org/2000/svg">
<path d="M26.1388 70.04C22.5654 70.04 19.2054 69.64 16.0588 68.84C12.9654 68.0933 10.2188 66.8933 7.81875 65.24C5.47208 63.64 3.63208 61.5333 2.29875 58.92C0.965417 56.36 0.29875 53.2667 0.29875 49.64C0.29875 48.4133 0.37875 47.0267 0.53875 45.48C0.752083 43.9333 1.17875 42.0933 1.81875 39.96C2.45875 37.7733 3.44542 35.24 4.77875 32.36L14.5388 36.12C13.7388 38.04 13.1254 39.6667 12.6988 41C12.2721 42.28 11.9521 43.4533 11.7388 44.52C11.5788 45.5333 11.4988 46.6 11.4988 47.72C11.4988 49.48 11.8721 51.0533 12.6188 52.44C13.4188 53.8267 14.5121 55 15.8988 55.96C17.3388 56.92 19.0721 57.64 21.0988 58.12C23.1788 58.6 25.4988 58.84 28.0588 58.84C31.3654 58.84 34.2454 58.6267 36.6988 58.2C39.1521 57.8267 41.2054 57.2667 42.8588 56.52C44.5654 55.8267 45.9254 54.9733 46.9388 53.96C47.9521 52.9467 48.6721 51.8533 49.0988 50.68C49.6321 49.2933 49.9788 47.8533 50.1388 46.36C50.3521 44.8133 50.4588 43.0533 50.4588 41.08C50.4588 38.7333 50.2454 36.7333 49.8188 35.08C49.4454 33.3733 48.8588 32.0667 48.0588 31.16C47.2588 30.2533 46.2721 29.8 45.0988 29.8C44.1388 29.8 43.2588 30.12 42.4588 30.76C41.7121 31.4 41.1254 32.2 40.6988 33.16C40.2721 34.0667 40.0588 35 40.0588 35.96C40.0588 36.76 40.2454 37.4267 40.6188 37.96C41.0454 38.4933 41.6588 38.92 42.4588 39.24C43.2588 39.5067 44.2454 39.64 45.4188 39.64C46.5921 39.64 47.8988 39.5067 49.3388 39.24C50.7788 38.92 52.0588 38.44 53.1788 37.8L53.9788 47.48C52.6988 48.4933 50.9654 49.2667 48.7788 49.8C46.6454 50.28 44.6454 50.52 42.7788 50.52C40.0054 50.52 37.5788 50.1467 35.4988 49.4C33.4721 48.6 31.8988 47.2933 30.7788 45.48C29.6588 43.6667 29.0988 41.2133 29.0988 38.12C29.0988 35.88 29.4988 33.64 30.2988 31.4C31.0988 29.1067 32.2188 27 33.6588 25.08C35.0988 23.16 36.8321 21.64 38.8588 20.52C40.8854 19.3467 43.1254 18.76 45.5788 18.76C49.0454 18.76 51.9521 19.7733 54.2988 21.8C56.6988 23.7733 58.5121 26.4133 59.7388 29.72C61.0188 32.9733 61.6588 36.52 61.6588 40.36C61.6588 43.9333 61.2854 47.08 60.5388 49.8C59.8454 52.4667 58.9388 54.84 57.8188 56.92C56.4854 59.2667 54.8054 61.2667 52.7788 62.92C50.8054 64.6267 48.4854 65.9867 45.8188 67C43.2054 68.0667 40.2454 68.84 36.9388 69.32C33.6321 69.8 30.0321 70.04 26.1388 70.04ZM52.6988 11.48C51.1521 11.48 49.8188 10.9467 48.6988 9.88C47.6321 8.76 47.0988 7.45333 47.0988 5.96C47.0988 4.41333 47.6321 3.08 48.6988 1.96C49.8188 0.839998 51.1521 0.279999 52.6988 0.279999C54.1921 0.279999 55.4721 0.839998 56.5388 1.96C57.6054 3.08 58.1388 4.41333 58.1388 5.96C58.1388 7.45333 57.6054 8.76 56.5388 9.88C55.4721 10.9467 54.1921 11.48 52.6988 11.48ZM38.8588 11.4C37.3121 11.4 35.9788 10.8667 34.8588 9.8C33.7921 8.68 33.2588 7.37333 33.2588 5.88C33.2588 4.33333 33.7921 3 34.8588 1.88C35.9788 0.759996 37.3121 0.199995 38.8588 0.199995C40.3521 0.199995 41.6321 0.759996 42.6988 1.88C43.7654 3 44.2988 4.33333 44.2988 5.88C44.2988 7.37333 43.7654 8.68 42.6988 9.8C41.6321 10.8667 40.3521 11.4 38.8588 11.4Z" fill="white"/>
</svg>
