<svg width="69" height="61" viewBox="0 0 69 61" fill="none" xmlns="http://www.w3.org/2000/svg">
<path d="M31.6934 60.68L33.7734 49.48C38.8401 49.5333 42.9201 49.4 46.0134 49.08C49.1601 48.7067 51.5334 48.04 53.1334 47.08C54.7868 46.0667 55.8534 44.6533 56.3334 42.84C56.8668 40.9733 57.0534 38.6 56.8934 35.72L55.1334 0.439996H66.3334L68.0934 36.28C68.3601 41.1333 68.0134 45.16 67.0534 48.36C66.0934 51.5067 64.2801 53.9867 61.6134 55.8C58.9468 57.56 55.1868 58.8133 50.3334 59.56C45.4801 60.3067 39.2668 60.68 31.6934 60.68ZM27.8534 41.72L25.7734 33.8C27.6401 33.32 29.1601 32.8933 30.3334 32.52C31.5601 32.1467 32.4668 31.7733 33.0534 31.4C33.6401 31.0267 33.9334 30.6533 33.9334 30.28C33.9334 29.8 33.6934 29.2933 33.2134 28.76C32.7334 28.2267 32.2001 27.6133 31.6134 26.92C31.0268 26.2267 30.4934 25.4533 30.0134 24.6C29.5334 23.7467 29.2934 22.76 29.2934 21.64C29.2934 20.3067 29.6668 19.0533 30.4134 17.88C31.1601 16.6533 32.3601 15.48 34.0134 14.36C35.7201 13.1867 37.9601 12.04 40.7334 10.92L44.1734 18.04C41.9334 18.9467 40.4134 19.7467 39.6134 20.44C38.8668 21.08 38.4934 21.6933 38.4934 22.28C38.4934 22.76 38.7334 23.32 39.2134 23.96C39.6934 24.6 40.2268 25.32 40.8134 26.12C41.4534 26.8667 42.0134 27.72 42.4934 28.68C42.9734 29.5867 43.2134 30.5733 43.2134 31.64C43.2134 32.4933 43.0268 33.3733 42.6534 34.28C42.3334 35.1867 41.6401 36.0667 40.5734 36.92C39.5601 37.7733 38.0401 38.6 36.0134 39.4C33.9868 40.2 31.2668 40.9733 27.8534 41.72ZM31.6934 60.68C25.9334 60.68 21.0534 60.2267 17.0534 59.32C13.1068 58.4667 9.8801 57.24 7.37344 55.64C4.9201 53.9867 3.13344 52.0667 2.01344 49.88C0.893438 47.6933 0.333438 45.2933 0.333438 42.68C0.333438 40.9733 0.466771 39.2667 0.733438 37.56C1.05344 35.8 1.42677 34.0933 1.85344 32.44C2.33344 30.7867 2.7601 29.2933 3.13344 27.96L13.1334 30.28C12.9201 31.24 12.6801 32.28 12.4134 33.4C12.1468 34.52 11.9334 35.6133 11.7734 36.68C11.6134 37.6933 11.5334 38.6267 11.5334 39.48C11.5334 41.4533 12.2268 43.2133 13.6134 44.76C15.0534 46.2533 17.4001 47.4267 20.6534 48.28C23.9068 49.08 28.2801 49.48 33.7734 49.48L35.3734 58.12L31.6934 60.68Z" fill="white"/>
</svg>
