<svg width="54" height="78" viewBox="0 0 54 78" fill="none" xmlns="http://www.w3.org/2000/svg">
<path d="M0.931563 56.76C0.931563 55.5333 1.03823 54.0933 1.25156 52.44C1.4649 50.7867 1.8649 48.92 2.45156 46.84C3.03823 44.7067 3.91823 42.3333 5.09156 39.72L14.9316 43.16C14.3449 44.8133 13.8382 46.3333 13.4116 47.72C12.9849 49.0533 12.6649 50.3067 12.4516 51.48C12.2382 52.6 12.1316 53.72 12.1316 54.84C12.1316 57.56 12.7182 59.8 13.8916 61.56C15.1182 63.32 16.8249 64.6267 19.0116 65.48C21.1982 66.3333 23.7316 66.76 26.6116 66.76C30.4516 66.76 33.4916 66.12 35.7316 64.84C37.9716 63.56 39.5982 61.7733 40.6116 59.48C41.6249 57.24 42.2382 54.6267 42.4516 51.64C42.7182 48.6 42.7982 45.3733 42.6916 41.96L41.1716 0.439996H52.4516L53.8116 41.24C53.9182 44.7067 53.7849 48.1733 53.4116 51.64C53.0916 55.1067 52.3716 58.3867 51.2516 61.48C50.1849 64.5733 48.6116 67.32 46.5316 69.72C44.4516 72.12 41.7582 74.0133 38.4516 75.4C35.1982 76.7867 31.1716 77.48 26.3716 77.48C22.9049 77.48 19.6249 77.08 16.5316 76.28C13.4916 75.48 10.7982 74.2267 8.45156 72.52C6.1049 70.8667 4.2649 68.7333 2.93156 66.12C1.59823 63.5067 0.931563 60.3867 0.931563 56.76Z" fill="white"/>
</svg>
