<svg width="44" height="59" viewBox="0 0 44 59" fill="none" xmlns="http://www.w3.org/2000/svg">
<path d="M28.7466 16.12C28.7466 14.36 28.6399 12.6 28.4266 10.84C28.2666 9.08 28.0532 7.42666 27.7866 5.88C27.5199 4.28 27.2799 2.89333 27.0666 1.72L38.2666 0.119995C38.4799 1.18666 38.6932 2.6 38.9066 4.36C39.1199 6.12 39.3066 7.98666 39.4666 9.96C39.6266 11.88 39.7066 13.72 39.7066 15.48C39.7066 18.2533 39.4666 20.8667 38.9866 23.32C38.5066 25.7733 37.7866 28.0933 36.8266 30.28C35.8666 32.4133 34.6666 34.4667 33.2266 36.44L31.7866 38.36C30.3999 40.0667 28.7732 41.7467 26.9066 43.4C25.0932 45.0533 23.0932 46.6533 20.9066 48.2H26.1066C27.9199 48.2 29.3066 48.0933 30.2666 47.88C31.2266 47.6667 31.8666 47.3733 32.1866 47C32.5599 46.5733 32.7466 46.0933 32.7466 45.56C32.7466 44.6 31.9199 43.1867 30.2666 41.32C28.6132 39.4 26.3199 37.2133 23.3866 34.76C20.4532 32.2533 17.0132 29.6133 13.0666 26.84C9.17323 24.0133 4.9599 21.1867 0.426563 18.36L6.26656 9.8C12.5599 13.6933 17.8666 17.2667 22.1866 20.52C26.5599 23.7733 30.1332 26.7333 32.9066 29.4C35.7332 32.0667 37.9199 34.4933 39.4666 36.68C41.0132 38.8667 42.0799 40.84 42.6666 42.6C43.2532 44.3067 43.5466 45.8533 43.5466 47.24C43.5466 48.7867 43.3066 50.28 42.8266 51.72C42.3466 53.1067 41.5732 54.36 40.5066 55.48C39.4399 56.5467 38.0532 57.4 36.3466 58.04C34.6399 58.68 32.5332 59 30.0266 59H6.50656V48.28C11.9999 44.3333 16.3466 40.6 19.5466 37.08C22.7999 33.56 25.1466 30.0933 26.5866 26.68C28.0266 23.2667 28.7466 19.7467 28.7466 16.12Z" fill="white"/>
</svg>
