<svg width="41" height="68" viewBox="0 0 41 68" fill="none" xmlns="http://www.w3.org/2000/svg">
<path d="M5.18594 67.44C4.22594 63.7067 3.39927 60.2133 2.70594 56.96C2.06594 53.76 1.58594 50.8533 1.26594 48.24C0.945938 45.68 0.785938 43.4933 0.785938 41.68C0.785938 37.9467 1.39927 34.8267 2.62594 32.32C3.90594 29.8133 5.58594 27.8133 7.66594 26.32C9.79927 24.7733 12.1193 23.68 14.6259 23.04C17.1326 22.3467 19.6393 22 22.1459 22C24.7059 22 27.0526 22.2133 29.1859 22.64C29.2926 20.9867 29.1593 19.4933 28.7859 18.16C28.4659 16.8267 27.9593 15.68 27.2659 14.72C26.6259 13.76 25.8259 13.0133 24.8659 12.48C23.9593 11.9467 22.9726 11.68 21.9059 11.68C20.8926 11.68 19.8793 11.9467 18.8659 12.48C17.8526 12.96 16.8926 13.68 15.9859 14.64C15.1326 15.6 14.3059 16.8267 13.5059 18.32L4.78594 13.52C6.22594 10.2667 7.9326 7.70667 9.90594 5.84C11.8793 3.92 13.9326 2.56 16.0659 1.76C18.2526 0.906664 20.3859 0.479997 22.4659 0.479997C25.6659 0.479997 28.4126 1.17333 30.7059 2.56C33.0526 3.89333 34.9459 5.65333 36.3859 7.84C37.8259 9.97333 38.8926 12.2667 39.5859 14.72C40.2793 17.1733 40.6259 19.52 40.6259 21.76C40.6259 23.4667 40.4393 25.1733 40.0659 26.88C39.7459 28.5333 39.3459 30.0267 38.8659 31.36C38.4393 32.6933 38.0126 33.7333 37.5859 34.48C34.6526 33.68 31.8793 33.0933 29.2659 32.72C26.6526 32.3467 24.2793 32.24 22.1459 32.4C20.0659 32.5067 18.2526 32.9333 16.7059 33.68C15.2126 34.3733 14.0393 35.4133 13.1859 36.8C12.3859 38.1867 11.9859 39.9467 11.9859 42.08C11.9859 44.0533 12.1459 46.2933 12.4659 48.8C12.7859 51.36 13.2393 54 13.8259 56.72C14.4126 59.44 15.0793 62.1333 15.8259 64.8L5.18594 67.44Z" fill="white"/>
</svg>
