<svg width="55" height="64" viewBox="0 0 55 64" fill="none" xmlns="http://www.w3.org/2000/svg">
<path d="M0.931563 42.76C0.931563 41.5333 1.03823 40.0933 1.25156 38.44C1.4649 36.7867 1.8649 34.92 2.45156 32.84C3.03823 30.7067 3.91823 28.3333 5.09156 25.72L14.9316 29.16C14.3449 30.8133 13.8382 32.3333 13.4116 33.72C12.9849 35.0533 12.6649 36.3067 12.4516 37.48C12.2382 38.6 12.1316 39.72 12.1316 40.84C12.1316 43.4533 12.7182 45.5867 13.8916 47.24C15.1182 48.9467 16.8249 50.2 19.0116 51C21.1982 51.8533 23.7316 52.28 26.6116 52.28C29.9182 52.28 32.6382 51.8267 34.7716 50.92C36.9049 50.0667 38.5582 48.92 39.7316 47.48C40.9049 46.0933 41.7316 44.5733 42.2116 42.92C42.6916 41.2133 42.9316 39.56 42.9316 37.96C42.9316 35.7733 42.5582 33.1867 41.8116 30.2C41.0649 27.16 39.7316 23.7467 37.8116 19.96L48.1316 15.56C49.1982 17.4267 50.1849 19.6133 51.0916 22.12C51.9982 24.5733 52.7182 27.1333 53.2516 29.8C53.8382 32.4667 54.1316 35 54.1316 37.4C54.1316 39.5333 53.8649 41.8 53.3316 44.2C52.7982 46.5467 51.8916 48.8667 50.6116 51.16C49.3849 53.4533 47.7049 55.5067 45.5716 57.32C43.4382 59.1867 40.7982 60.68 37.6516 61.8C34.5049 62.92 30.7449 63.48 26.3716 63.48C22.8516 63.48 19.5449 63.08 16.4516 62.28C13.4116 61.5333 10.7182 60.3333 8.37156 58.68C6.07823 57.0267 4.2649 54.8667 2.93156 52.2C1.59823 49.5867 0.931563 46.44 0.931563 42.76ZM27.0116 12.36C25.3582 12.36 23.9449 11.8 22.7716 10.68C21.6516 9.56 21.0916 8.17333 21.0916 6.52C21.0916 4.86666 21.6516 3.45333 22.7716 2.28C23.9449 1.10666 25.3582 0.519996 27.0116 0.519996C28.6116 0.519996 29.9716 1.10666 31.0916 2.28C32.2649 3.45333 32.8516 4.86666 32.8516 6.52C32.8516 8.17333 32.2649 9.56 31.0916 10.68C29.9716 11.8 28.6116 12.36 27.0116 12.36Z" fill="white"/>
</svg>
