<svg width="34" height="45" viewBox="0 0 34 45" fill="none" xmlns="http://www.w3.org/2000/svg">
<path d="M16.5119 44.24C13.5252 44.24 10.8319 43.7333 8.43188 42.72C6.08521 41.6533 4.21854 40.08 2.83188 38C1.49854 35.8667 0.831875 33.2267 0.831875 30.08C0.831875 26.9333 1.89854 23.44 4.03188 19.6C6.16521 15.7067 9.73854 11.8133 14.7519 7.92L13.9519 15.28L6.75188 9.68L14.2719 0.479998C18.3252 3.57333 21.7919 6.58666 24.6719 9.52C27.6052 12.4 29.8452 15.36 31.3919 18.4C32.9385 21.44 33.7119 24.6667 33.7119 28.08C33.7119 29.7333 33.4452 31.52 32.9119 33.44C32.3785 35.3067 31.4719 37.0667 30.1919 38.72C28.9119 40.32 27.1519 41.6533 24.9119 42.72C22.7252 43.7333 19.9252 44.24 16.5119 44.24ZM17.3919 33.2C18.7252 33.2 19.7919 32.9333 20.5919 32.4C21.4452 31.8667 22.0852 31.1733 22.5119 30.32C22.9385 29.4667 23.1519 28.56 23.1519 27.6C23.1519 26.64 22.9385 25.6 22.5119 24.48C22.0852 23.36 21.2585 22.1067 20.0319 20.72C18.8052 19.3333 16.9919 17.7333 14.5919 15.92L20.6719 15.12C18.4852 16.6133 16.7252 18.1333 15.3919 19.68C14.0585 21.2267 13.0985 22.72 12.5119 24.16C11.9785 25.5467 11.7119 26.8267 11.7119 28C11.7119 29.7067 12.2719 31.0133 13.3919 31.92C14.5119 32.7733 15.8452 33.2 17.3919 33.2Z" fill="white"/>
</svg>
