<svg width="35" height="52" viewBox="0 0 35 52" fill="none" xmlns="http://www.w3.org/2000/svg">
<path d="M2.63813 51.4L0.318125 40.2C4.10479 39.72 7.41146 39.1333 10.2381 38.44C13.0648 37.8 15.4381 36.8933 17.3581 35.72C19.2781 34.5467 20.7181 32.9467 21.6781 30.92C22.6381 28.84 23.1181 26.1733 23.1181 22.92C23.1181 21.7467 23.0115 20.5733 22.7981 19.4C22.5848 18.1733 22.2648 17.0533 21.8381 16.04C21.4115 15.0267 20.8515 14.2 20.1581 13.56C19.5181 12.92 18.7448 12.6 17.8381 12.6C16.8781 12.6 16.0248 12.9467 15.2781 13.64C14.5315 14.28 13.9448 15.1067 13.5181 16.12C13.0915 17.08 12.8781 18.0667 12.8781 19.08C12.8781 19.8267 13.0648 20.4667 13.4381 21C13.8115 21.48 14.3715 21.8533 15.1181 22.12C15.8648 22.3333 16.7981 22.44 17.9181 22.44C19.1981 22.44 20.5048 22.3067 21.8381 22.04C23.2248 21.72 24.4781 21.2933 25.5981 20.76L25.9181 29.48C24.6381 30.4933 23.1715 31.4 21.5181 32.2C19.8648 32.9467 17.8648 33.32 15.5181 33.32C13.5981 33.32 11.8115 33.1067 10.1581 32.68C8.50479 32.2 7.03813 31.48 5.75813 30.52C4.53146 29.56 3.57146 28.3333 2.87813 26.84C2.18479 25.2933 1.83813 23.4533 1.83813 21.32C1.83813 18.7067 2.26479 16.1733 3.11813 13.72C3.97146 11.2667 5.14479 9.08 6.63813 7.16C8.18479 5.18667 9.94479 3.64 11.9181 2.52C13.9448 1.34666 16.0781 0.759998 18.3181 0.759998C20.9848 0.759998 23.3048 1.42666 25.2781 2.76C27.3048 4.09333 28.9848 5.85333 30.3181 8.04C31.6515 10.1733 32.6648 12.4933 33.3581 15C34.0515 17.5067 34.3981 19.9067 34.3981 22.2C34.3981 28.2267 33.1181 33.3467 30.5581 37.56C27.9981 41.7733 24.3448 45.0267 19.5981 47.32C14.8515 49.6667 9.19813 51.0267 2.63813 51.4Z" fill="white"/>
</svg>
