<svg width="63" height="77" viewBox="0 0 63 77" fill="none" xmlns="http://www.w3.org/2000/svg">
<path d="M0.228438 36.76C0.228438 35.5333 0.335104 34.0933 0.548438 32.44C0.761771 30.7867 1.16177 28.92 1.74844 26.84C2.3351 24.7067 3.2151 22.3333 4.38844 19.72L14.2284 23.16C13.6418 24.8133 13.1351 26.3333 12.7084 27.72C12.2818 29.0533 11.9618 30.3067 11.7484 31.48C11.5351 32.6 11.4284 33.72 11.4284 34.84C11.4284 36.44 11.7751 37.9333 12.4684 39.32C13.1618 40.7067 14.2018 41.9067 15.5884 42.92C16.9751 43.9867 18.6818 44.8133 20.7084 45.4C22.7884 45.9867 25.1884 46.28 27.9084 46.28C31.0018 46.28 33.7218 45.9867 36.0684 45.4C38.4684 44.8667 40.4684 44.1467 42.0684 43.24C43.7218 42.3867 44.9751 41.48 45.8284 40.52C46.6818 39.56 47.1084 38.68 47.1084 37.88C47.1084 37.24 46.6551 36.68 45.7484 36.2C44.8951 35.72 43.7484 35.24 42.3084 34.76C40.9218 34.2267 39.4284 33.64 37.8284 33C36.2818 32.36 34.7884 31.56 33.3484 30.6C31.9618 29.64 30.8151 28.4667 29.9084 27.08C29.0551 25.6933 28.6284 24.0133 28.6284 22.04C28.6284 20.0133 29.1618 17.8 30.2284 15.4C31.2951 12.9467 32.8151 10.6267 34.7884 8.44C36.7618 6.2 39.1084 4.38666 41.8284 3C44.6018 1.56 47.6418 0.839998 50.9484 0.839998C53.2951 0.839998 55.4284 1.21333 57.3484 1.96C59.3218 2.70666 60.9751 3.56 62.3084 4.52L58.1484 13.88C57.0284 13.1333 55.8284 12.5733 54.5484 12.2C53.2684 11.7733 52.0418 11.56 50.8684 11.56C49.3751 11.56 47.9351 11.8533 46.5484 12.44C45.2151 13.0267 44.0151 13.8 42.9484 14.76C41.9351 15.6667 41.1351 16.6533 40.5484 17.72C39.9618 18.7867 39.6684 19.8 39.6684 20.76C39.6684 21.72 40.1218 22.5733 41.0284 23.32C41.9884 24.0133 43.2151 24.68 44.7084 25.32C46.2018 25.9067 47.7751 26.52 49.4284 27.16C51.0818 27.8 52.6551 28.52 54.1484 29.32C55.6418 30.12 56.8418 31.08 57.7484 32.2C58.7084 33.32 59.1884 34.68 59.1884 36.28C59.1884 38.5733 58.4684 40.9467 57.0284 43.4C55.6418 45.9067 53.5618 48.2267 50.7884 50.36C48.0151 52.4933 44.6018 54.2 40.5484 55.48C36.5484 56.8133 31.9084 57.48 26.6284 57.48C22.7884 57.48 19.2684 57.0267 16.0684 56.12C12.8684 55.2667 10.0684 53.96 7.66844 52.2C5.32177 50.4933 3.48177 48.3333 2.14844 45.72C0.868438 43.16 0.228438 40.1733 0.228438 36.76ZM33.9084 76.04C32.3618 76.04 31.0284 75.48 29.9084 74.36C28.8418 73.2933 28.3084 72.0133 28.3084 70.52C28.3084 68.9733 28.8418 67.64 29.9084 66.52C31.0284 65.4 32.3618 64.84 33.9084 64.84C35.4018 64.84 36.6818 65.4 37.7484 66.52C38.8151 67.64 39.3484 68.9733 39.3484 70.52C39.3484 72.0133 38.8151 73.2933 37.7484 74.36C36.6818 75.48 35.4018 76.04 33.9084 76.04ZM20.0684 76.04C18.5218 76.04 17.1884 75.48 16.0684 74.36C15.0018 73.2933 14.4684 72.0133 14.4684 70.52C14.4684 68.9733 15.0018 67.64 16.0684 66.52C17.1884 65.4 18.5218 64.84 20.0684 64.84C21.5618 64.84 22.8418 65.4 23.9084 66.52C24.9751 67.64 25.5084 68.9733 25.5084 70.52C25.5084 72.0133 24.9751 73.2933 23.9084 74.36C22.8418 75.48 21.5618 76.04 20.0684 76.04Z" fill="white"/>
</svg>
